<?xml version="1.0" encoding="UTF-8" standalone="no"?>
<!DOCTYPE svg PUBLIC "-//W3C//DTD SVG 1.1//EN" "http://www.w3.org/Graphics/SVG/1.1/DTD/svg11.dtd">
<svg xmlns:dc="http://purl.org/dc/elements/1.1/" version="1.1" xmlns:xl="http://www.w3.org/1999/xlink" xmlns="http://www.w3.org/2000/svg" viewBox="367 92 780 434" width="780" height="434">
  <defs/>
  <metadata> Produced by OmniGraffle 7.19.5\n2022-07-25 22:12:04 +0000</metadata>
  <g id="Canvas_1" fill="none" stroke="none" stroke-dasharray="none" stroke-opacity="1" fill-opacity="1">
    <title>Canvas 1</title>
    <g id="Canvas_1_Layer_1">
      <title>Layer 1</title>
      <g id="Group_28">
        <g id="Graphic_26">
          <rect x="533.6724" y="92" width="446.65523" height="434" id="path"/>
          <clipPath id="clip_path">
            <use xl:href="#path"/>
          </clipPath>
          <g clip-path="url(#clip_path)">
            <image xl:href="image1.tiff" width="1200" height="1166" transform="translate(533.6724 92) scale(.3722127)"/>
          </g>
        </g>
        <g id="Graphic_3">
          <path d="M 530.33784 265.5822 C 530.33784 265.5822 533.1858 273.1404 530.4437 277.887 C 527.2793 283.512 523.9043 287.9058 524.4313 289.8399 C 524.95944 291.7731 527.2793 293.1798 529.0721 293.1798 C 531.8142 293.1798 536.66556 288.7851 540.8851 288.7851 C 545.20944 288.7851 546.1577 294.4101 546.1577 298.4529 C 546.1577 302.4957 542.25564 308.6481 537.08784 308.6481 C 532.0259 308.6481 532.6577 304.9572 528.33444 304.9572 C 524.0101 304.9572 523.79844 309.6156 526.857 314.8887 C 530.0214 320.1618 530.54844 331.8519 530.54844 331.8519 C 530.54844 331.8519 534.45156 330.357 542.7827 330.357 C 551.1149 330.357 556.5991 333.4332 556.5991 337.4769 C 556.5991 341.6952 552.38064 340.9923 552.38064 346.6173 C 552.38064 352.2423 560.71284 354 564.9313 354 C 569.3615 354 577.79844 352.6815 577.79844 347.3202 C 577.79844 341.8707 573.2635 341.8707 573.2635 337.125 C 573.2635 332.4666 576.8491 330.2697 579.4865 330.2697 C 582.018 330.2697 585.393 332.7303 592.03716 333.6096 C 597.5214 334.2243 605.95944 331.6755 605.95944 331.6755 C 605.95944 331.6755 605.4313 319.9863 602.268 314.7132 C 599.20944 309.4392 599.42004 304.7808 603.74436 304.7808 C 608.0687 304.7808 607.4358 308.4726 612.49776 308.4726 C 617.66556 308.4726 621.5687 302.3202 621.5687 298.2774 C 621.5687 294.3219 620.61936 288.6096 616.29504 288.6096 C 611.9707 288.6096 607.11936 293.0043 604.482 293.0043 C 602.6892 293.0043 600.36936 291.5976 599.8423 289.6644 C 599.3142 287.7303 602.58444 283.3356 605.8536 277.7106 C 608.5957 272.9649 605.74776 265.4058 605.74776 265.4058 C 605.74776 265.4058 597.3108 268.0428 591.82656 267.3399 C 585.1813 266.4606 581.8063 264 579.2759 264 C 576.6385 264 573.0529 266.2851 573.0529 271.0308 C 573.0529 275.6892 577.58784 275.6892 577.58784 281.0505 C 577.58784 286.5 569.1509 287.8185 564.82656 287.8185 C 560.50224 287.8185 552.17004 285.9726 552.17004 280.4358 C 552.17004 274.7226 556.3885 275.4255 556.3885 271.3827 C 556.3885 267.1644 550.9043 264.1755 542.5721 264.1755 C 534.2399 264.1755 530.33784 265.5822 530.33784 265.5822 Z" fill="blue"/>
          <path d="M 530.33784 265.5822 C 530.33784 265.5822 533.1858 273.1404 530.4437 277.887 C 527.2793 283.512 523.9043 287.9058 524.4313 289.8399 C 524.95944 291.7731 527.2793 293.1798 529.0721 293.1798 C 531.8142 293.1798 536.66556 288.7851 540.8851 288.7851 C 545.20944 288.7851 546.1577 294.4101 546.1577 298.4529 C 546.1577 302.4957 542.25564 308.6481 537.08784 308.6481 C 532.0259 308.6481 532.6577 304.9572 528.33444 304.9572 C 524.0101 304.9572 523.79844 309.6156 526.857 314.8887 C 530.0214 320.1618 530.54844 331.8519 530.54844 331.8519 C 530.54844 331.8519 534.45156 330.357 542.7827 330.357 C 551.1149 330.357 556.5991 333.4332 556.5991 337.4769 C 556.5991 341.6952 552.38064 340.9923 552.38064 346.6173 C 552.38064 352.2423 560.71284 354 564.9313 354 C 569.3615 354 577.79844 352.6815 577.79844 347.3202 C 577.79844 341.8707 573.2635 341.8707 573.2635 337.125 C 573.2635 332.4666 576.8491 330.2697 579.4865 330.2697 C 582.018 330.2697 585.393 332.7303 592.03716 333.6096 C 597.5214 334.2243 605.95944 331.6755 605.95944 331.6755 C 605.95944 331.6755 605.4313 319.9863 602.268 314.7132 C 599.20944 309.4392 599.42004 304.7808 603.74436 304.7808 C 608.0687 304.7808 607.4358 308.4726 612.49776 308.4726 C 617.66556 308.4726 621.5687 302.3202 621.5687 298.2774 C 621.5687 294.3219 620.61936 288.6096 616.29504 288.6096 C 611.9707 288.6096 607.11936 293.0043 604.482 293.0043 C 602.6892 293.0043 600.36936 291.5976 599.8423 289.6644 C 599.3142 287.7303 602.58444 283.3356 605.8536 277.7106 C 608.5957 272.9649 605.74776 265.4058 605.74776 265.4058 C 605.74776 265.4058 597.3108 268.0428 591.82656 267.3399 C 585.1813 266.4606 581.8063 264 579.2759 264 C 576.6385 264 573.0529 266.2851 573.0529 271.0308 C 573.0529 275.6892 577.58784 275.6892 577.58784 281.0505 C 577.58784 286.5 569.1509 287.8185 564.82656 287.8185 C 560.50224 287.8185 552.17004 285.9726 552.17004 280.4358 C 552.17004 274.7226 556.3885 275.4255 556.3885 271.3827 C 556.3885 267.1644 550.9043 264.1755 542.5721 264.1755 C 534.2399 264.1755 530.33784 265.5822 530.33784 265.5822 Z" stroke="gray" stroke-linecap="round" stroke-linejoin="round" stroke-width="1"/>
        </g>
        <g id="Graphic_12">
          <path d="M 573.33784 175.5822 C 573.33784 175.5822 576.1858 183.1404 573.4437 187.887 C 570.2793 193.512 566.9043 197.9058 567.4313 199.8399 C 567.95944 201.7731 570.2793 203.1798 572.0721 203.1798 C 574.8142 203.1798 579.66556 198.7851 583.8851 198.7851 C 588.20944 198.7851 589.1577 204.4101 589.1577 208.4529 C 589.1577 212.4957 585.25564 218.6481 580.08784 218.6481 C 575.0259 218.6481 575.6577 214.9572 571.33444 214.9572 C 567.0101 214.9572 566.79844 219.6156 569.857 224.8887 C 573.0214 230.1618 573.54844 241.8519 573.54844 241.8519 C 573.54844 241.8519 577.45156 240.357 585.7827 240.357 C 594.1149 240.357 599.5991 243.4332 599.5991 247.4769 C 599.5991 251.6952 595.38064 250.9923 595.38064 256.6173 C 595.38064 262.2423 603.71284 264 607.9313 264 C 612.3615 264 620.79844 262.6815 620.79844 257.3202 C 620.79844 251.8707 616.2635 251.8707 616.2635 247.125 C 616.2635 242.4666 619.8491 240.2697 622.4865 240.2697 C 625.018 240.2697 628.393 242.7303 635.03716 243.6096 C 640.5214 244.2243 648.95944 241.6755 648.95944 241.6755 C 648.95944 241.6755 648.4313 229.9863 645.268 224.7132 C 642.20944 219.4392 642.42004 214.7808 646.74436 214.7808 C 651.0687 214.7808 650.4358 218.4726 655.49776 218.4726 C 660.66556 218.4726 664.5687 212.3202 664.5687 208.2774 C 664.5687 204.3219 663.61936 198.6096 659.29504 198.6096 C 654.9707 198.6096 650.11936 203.0043 647.482 203.0043 C 645.6892 203.0043 643.36936 201.5976 642.8423 199.6644 C 642.3142 197.7303 645.58444 193.3356 648.8536 187.7106 C 651.5957 182.9649 648.74776 175.4058 648.74776 175.4058 C 648.74776 175.4058 640.3108 178.0428 634.82656 177.3399 C 628.1813 176.4606 624.8063 174 622.2759 174 C 619.6385 174 616.0529 176.2851 616.0529 181.0308 C 616.0529 185.6892 620.58784 185.6892 620.58784 191.0505 C 620.58784 196.5 612.1509 197.8185 607.82656 197.8185 C 603.50224 197.8185 595.17004 195.9726 595.17004 190.4358 C 595.17004 184.7226 599.3885 185.4255 599.3885 181.3827 C 599.3885 177.1644 593.9043 174.1755 585.5721 174.1755 C 577.2399 174.1755 573.33784 175.5822 573.33784 175.5822 Z" fill="black"/>
          <path d="M 573.33784 175.5822 C 573.33784 175.5822 576.1858 183.1404 573.4437 187.887 C 570.2793 193.512 566.9043 197.9058 567.4313 199.8399 C 567.95944 201.7731 570.2793 203.1798 572.0721 203.1798 C 574.8142 203.1798 579.66556 198.7851 583.8851 198.7851 C 588.20944 198.7851 589.1577 204.4101 589.1577 208.4529 C 589.1577 212.4957 585.25564 218.6481 580.08784 218.6481 C 575.0259 218.6481 575.6577 214.9572 571.33444 214.9572 C 567.0101 214.9572 566.79844 219.6156 569.857 224.8887 C 573.0214 230.1618 573.54844 241.8519 573.54844 241.8519 C 573.54844 241.8519 577.45156 240.357 585.7827 240.357 C 594.1149 240.357 599.5991 243.4332 599.5991 247.4769 C 599.5991 251.6952 595.38064 250.9923 595.38064 256.6173 C 595.38064 262.2423 603.71284 264 607.9313 264 C 612.3615 264 620.79844 262.6815 620.79844 257.3202 C 620.79844 251.8707 616.2635 251.8707 616.2635 247.125 C 616.2635 242.4666 619.8491 240.2697 622.4865 240.2697 C 625.018 240.2697 628.393 242.7303 635.03716 243.6096 C 640.5214 244.2243 648.95944 241.6755 648.95944 241.6755 C 648.95944 241.6755 648.4313 229.9863 645.268 224.7132 C 642.20944 219.4392 642.42004 214.7808 646.74436 214.7808 C 651.0687 214.7808 650.4358 218.4726 655.49776 218.4726 C 660.66556 218.4726 664.5687 212.3202 664.5687 208.2774 C 664.5687 204.3219 663.61936 198.6096 659.29504 198.6096 C 654.9707 198.6096 650.11936 203.0043 647.482 203.0043 C 645.6892 203.0043 643.36936 201.5976 642.8423 199.6644 C 642.3142 197.7303 645.58444 193.3356 648.8536 187.7106 C 651.5957 182.9649 648.74776 175.4058 648.74776 175.4058 C 648.74776 175.4058 640.3108 178.0428 634.82656 177.3399 C 628.1813 176.4606 624.8063 174 622.2759 174 C 619.6385 174 616.0529 176.2851 616.0529 181.0308 C 616.0529 185.6892 620.58784 185.6892 620.58784 191.0505 C 620.58784 196.5 612.1509 197.8185 607.82656 197.8185 C 603.50224 197.8185 595.17004 195.9726 595.17004 190.4358 C 595.17004 184.7226 599.3885 185.4255 599.3885 181.3827 C 599.3885 177.1644 593.9043 174.1755 585.5721 174.1755 C 577.2399 174.1755 573.33784 175.5822 573.33784 175.5822 Z" stroke="gray" stroke-linecap="round" stroke-linejoin="round" stroke-width="1"/>
        </g>
        <g id="Graphic_13">
          <path d="M 673.3378 104.5822 C 673.3378 104.5822 676.1858 112.1404 673.4437 116.887 C 670.2793 122.512 666.9043 126.9058 667.4313 128.8399 C 667.95944 130.7731 670.2793 132.1798 672.0721 132.1798 C 674.8142 132.1798 679.6656 127.7851 683.8851 127.7851 C 688.2094 127.7851 689.1577 133.4101 689.1577 137.4529 C 689.1577 141.4957 685.2556 147.6481 680.0878 147.6481 C 675.0259 147.6481 675.6577 143.9572 671.3344 143.9572 C 667.0101 143.9572 666.79844 148.6156 669.857 153.8887 C 673.0214 159.1618 673.5484 170.8519 673.5484 170.8519 C 673.5484 170.8519 677.4516 169.357 685.7827 169.357 C 694.1149 169.357 699.5991 172.4332 699.5991 176.4769 C 699.5991 180.6952 695.3806 179.9923 695.3806 185.6173 C 695.3806 191.2423 703.7128 193 707.9313 193 C 712.3615 193 720.7984 191.6815 720.7984 186.3202 C 720.7984 180.8707 716.2635 180.8707 716.2635 176.125 C 716.2635 171.4666 719.8491 169.2697 722.4865 169.2697 C 725.018 169.2697 728.393 171.7303 735.0372 172.6096 C 740.5214 173.2243 748.9594 170.6755 748.9594 170.6755 C 748.9594 170.6755 748.4313 158.9863 745.268 153.7132 C 742.2094 148.4392 742.42 143.7808 746.7444 143.7808 C 751.0687 143.7808 750.4358 147.4726 755.4978 147.4726 C 760.6656 147.4726 764.5687 141.3202 764.5687 137.2774 C 764.5687 133.3219 763.6194 127.6096 759.295 127.6096 C 754.9707 127.6096 750.1194 132.0043 747.482 132.0043 C 745.6892 132.0043 743.3694 130.5976 742.8423 128.6644 C 742.3142 126.7303 745.5844 122.3356 748.8536 116.7106 C 751.5957 111.9649 748.7478 104.4058 748.7478 104.4058 C 748.7478 104.4058 740.3108 107.0428 734.8266 106.3399 C 728.1813 105.4606 724.8063 103 722.2759 103 C 719.6385 103 716.0529 105.2851 716.0529 110.0308 C 716.0529 114.6892 720.5878 114.6892 720.5878 120.0505 C 720.5878 125.5 712.1509 126.8185 707.8266 126.8185 C 703.5022 126.8185 695.17 124.9726 695.17 119.4358 C 695.17 113.7226 699.3885 114.4255 699.3885 110.3827 C 699.3885 106.1644 693.9043 103.1755 685.5721 103.1755 C 677.2399 103.1755 673.3378 104.5822 673.3378 104.5822 Z" fill="black"/>
          <path d="M 673.3378 104.5822 C 673.3378 104.5822 676.1858 112.1404 673.4437 116.887 C 670.2793 122.512 666.9043 126.9058 667.4313 128.8399 C 667.95944 130.7731 670.2793 132.1798 672.0721 132.1798 C 674.8142 132.1798 679.6656 127.7851 683.8851 127.7851 C 688.2094 127.7851 689.1577 133.4101 689.1577 137.4529 C 689.1577 141.4957 685.2556 147.6481 680.0878 147.6481 C 675.0259 147.6481 675.6577 143.9572 671.3344 143.9572 C 667.0101 143.9572 666.79844 148.6156 669.857 153.8887 C 673.0214 159.1618 673.5484 170.8519 673.5484 170.8519 C 673.5484 170.8519 677.4516 169.357 685.7827 169.357 C 694.1149 169.357 699.5991 172.4332 699.5991 176.4769 C 699.5991 180.6952 695.3806 179.9923 695.3806 185.6173 C 695.3806 191.2423 703.7128 193 707.9313 193 C 712.3615 193 720.7984 191.6815 720.7984 186.3202 C 720.7984 180.8707 716.2635 180.8707 716.2635 176.125 C 716.2635 171.4666 719.8491 169.2697 722.4865 169.2697 C 725.018 169.2697 728.393 171.7303 735.0372 172.6096 C 740.5214 173.2243 748.9594 170.6755 748.9594 170.6755 C 748.9594 170.6755 748.4313 158.9863 745.268 153.7132 C 742.2094 148.4392 742.42 143.7808 746.7444 143.7808 C 751.0687 143.7808 750.4358 147.4726 755.4978 147.4726 C 760.6656 147.4726 764.5687 141.3202 764.5687 137.2774 C 764.5687 133.3219 763.6194 127.6096 759.295 127.6096 C 754.9707 127.6096 750.1194 132.0043 747.482 132.0043 C 745.6892 132.0043 743.3694 130.5976 742.8423 128.6644 C 742.3142 126.7303 745.5844 122.3356 748.8536 116.7106 C 751.5957 111.9649 748.7478 104.4058 748.7478 104.4058 C 748.7478 104.4058 740.3108 107.0428 734.8266 106.3399 C 728.1813 105.4606 724.8063 103 722.2759 103 C 719.6385 103 716.0529 105.2851 716.0529 110.0308 C 716.0529 114.6892 720.5878 114.6892 720.5878 120.0505 C 720.5878 125.5 712.1509 126.8185 707.8266 126.8185 C 703.5022 126.8185 695.17 124.9726 695.17 119.4358 C 695.17 113.7226 699.3885 114.4255 699.3885 110.3827 C 699.3885 106.1644 693.9043 103.1755 685.5721 103.1755 C 677.2399 103.1755 673.3378 104.5822 673.3378 104.5822 Z" stroke="gray" stroke-linecap="round" stroke-linejoin="round" stroke-width="1"/>
        </g>
        <g id="Graphic_17">
          <path d="M 748.3378 104.5822 C 748.3378 104.5822 751.1858 112.1404 748.4437 116.887 C 745.2793 122.512 741.9043 126.9058 742.4313 128.8399 C 742.9594 130.7731 745.2793 132.1798 747.0721 132.1798 C 749.8142 132.1798 754.6656 127.7851 758.8851 127.7851 C 763.2094 127.7851 764.1577 133.4101 764.1577 137.4529 C 764.1577 141.4957 760.2556 147.6481 755.0878 147.6481 C 750.0259 147.6481 750.6577 143.9572 746.3344 143.9572 C 742.0101 143.9572 741.7984 148.6156 744.857 153.8887 C 748.0214 159.1618 748.5484 170.8519 748.5484 170.8519 C 748.5484 170.8519 752.4516 169.357 760.7827 169.357 C 769.1149 169.357 774.5991 172.4332 774.5991 176.4769 C 774.5991 180.6952 770.3806 179.9923 770.3806 185.6173 C 770.3806 191.2423 778.7128 193 782.9313 193 C 787.3615 193 795.7984 191.6815 795.7984 186.3202 C 795.7984 180.8707 791.2635 180.8707 791.2635 176.125 C 791.2635 171.4666 794.8491 169.2697 797.4865 169.2697 C 800.018 169.2697 803.393 171.7303 810.0372 172.6096 C 815.5214 173.2243 823.9594 170.6755 823.9594 170.6755 C 823.9594 170.6755 823.4313 158.9863 820.268 153.7132 C 817.2094 148.4392 817.42 143.7808 821.7444 143.7808 C 826.0687 143.7808 825.4358 147.4726 830.4978 147.4726 C 835.6656 147.4726 839.5687 141.3202 839.5687 137.2774 C 839.5687 133.3219 838.6194 127.6096 834.295 127.6096 C 829.9707 127.6096 825.1194 132.0043 822.482 132.0043 C 820.6892 132.0043 818.3694 130.5976 817.8423 128.6644 C 817.3142 126.7303 820.5844 122.3356 823.8536 116.7106 C 826.5957 111.9649 823.7478 104.4058 823.7478 104.4058 C 823.7478 104.4058 815.3108 107.0428 809.8266 106.3399 C 803.1813 105.4606 799.8063 103 797.2759 103 C 794.6385 103 791.0529 105.2851 791.0529 110.0308 C 791.0529 114.6892 795.5878 114.6892 795.5878 120.0505 C 795.5878 125.5 787.1509 126.8185 782.8266 126.8185 C 778.5022 126.8185 770.17 124.9726 770.17 119.4358 C 770.17 113.7226 774.3885 114.4255 774.3885 110.3827 C 774.3885 106.1644 768.9043 103.1755 760.5721 103.1755 C 752.2399 103.1755 748.3378 104.5822 748.3378 104.5822 Z" fill="black"/>
          <path d="M 748.3378 104.5822 C 748.3378 104.5822 751.1858 112.1404 748.4437 116.887 C 745.2793 122.512 741.9043 126.9058 742.4313 128.8399 C 742.9594 130.7731 745.2793 132.1798 747.0721 132.1798 C 749.8142 132.1798 754.6656 127.7851 758.8851 127.7851 C 763.2094 127.7851 764.1577 133.4101 764.1577 137.4529 C 764.1577 141.4957 760.2556 147.6481 755.0878 147.6481 C 750.0259 147.6481 750.6577 143.9572 746.3344 143.9572 C 742.0101 143.9572 741.7984 148.6156 744.857 153.8887 C 748.0214 159.1618 748.5484 170.8519 748.5484 170.8519 C 748.5484 170.8519 752.4516 169.357 760.7827 169.357 C 769.1149 169.357 774.5991 172.4332 774.5991 176.4769 C 774.5991 180.6952 770.3806 179.9923 770.3806 185.6173 C 770.3806 191.2423 778.7128 193 782.9313 193 C 787.3615 193 795.7984 191.6815 795.7984 186.3202 C 795.7984 180.8707 791.2635 180.8707 791.2635 176.125 C 791.2635 171.4666 794.8491 169.2697 797.4865 169.2697 C 800.018 169.2697 803.393 171.7303 810.0372 172.6096 C 815.5214 173.2243 823.9594 170.6755 823.9594 170.6755 C 823.9594 170.6755 823.4313 158.9863 820.268 153.7132 C 817.2094 148.4392 817.42 143.7808 821.7444 143.7808 C 826.0687 143.7808 825.4358 147.4726 830.4978 147.4726 C 835.6656 147.4726 839.5687 141.3202 839.5687 137.2774 C 839.5687 133.3219 838.6194 127.6096 834.295 127.6096 C 829.9707 127.6096 825.1194 132.0043 822.482 132.0043 C 820.6892 132.0043 818.3694 130.5976 817.8423 128.6644 C 817.3142 126.7303 820.5844 122.3356 823.8536 116.7106 C 826.5957 111.9649 823.7478 104.4058 823.7478 104.4058 C 823.7478 104.4058 815.3108 107.0428 809.8266 106.3399 C 803.1813 105.4606 799.8063 103 797.2759 103 C 794.6385 103 791.0529 105.2851 791.0529 110.0308 C 791.0529 114.6892 795.5878 114.6892 795.5878 120.0505 C 795.5878 125.5 787.1509 126.8185 782.8266 126.8185 C 778.5022 126.8185 770.17 124.9726 770.17 119.4358 C 770.17 113.7226 774.3885 114.4255 774.3885 110.3827 C 774.3885 106.1644 768.9043 103.1755 760.5721 103.1755 C 752.2399 103.1755 748.3378 104.5822 748.3378 104.5822 Z" stroke="gray" stroke-linecap="round" stroke-linejoin="round" stroke-width="1"/>
        </g>
        <g id="Graphic_18">
          <path d="M 866.3378 175.5822 C 866.3378 175.5822 869.1858 183.1404 866.4437 187.887 C 863.2793 193.512 859.9043 197.9058 860.4313 199.8399 C 860.9594 201.7731 863.2793 203.1798 865.0721 203.1798 C 867.8142 203.1798 872.6656 198.7851 876.8851 198.7851 C 881.2094 198.7851 882.1577 204.4101 882.1577 208.4529 C 882.1577 212.4957 878.2556 218.6481 873.0878 218.6481 C 868.0259 218.6481 868.6577 214.9572 864.3344 214.9572 C 860.0101 214.9572 859.7984 219.6156 862.857 224.8887 C 866.0214 230.1618 866.5484 241.8519 866.5484 241.8519 C 866.5484 241.8519 870.4516 240.357 878.7827 240.357 C 887.1149 240.357 892.5991 243.4332 892.5991 247.4769 C 892.5991 251.6952 888.3806 250.9923 888.3806 256.6173 C 888.3806 262.2423 896.7128 264 900.9313 264 C 905.3615 264 913.7984 262.6815 913.7984 257.3202 C 913.7984 251.8707 909.2635 251.8707 909.2635 247.125 C 909.2635 242.4666 912.8491 240.2697 915.4865 240.2697 C 918.018 240.2697 921.393 242.7303 928.0372 243.6096 C 933.5214 244.2243 941.9594 241.6755 941.9594 241.6755 C 941.9594 241.6755 941.4313 229.9863 938.268 224.7132 C 935.2094 219.4392 935.42 214.7808 939.7444 214.7808 C 944.0687 214.7808 943.4358 218.4726 948.4978 218.4726 C 953.6656 218.4726 957.5687 212.3202 957.5687 208.2774 C 957.5687 204.3219 956.6194 198.6096 952.295 198.6096 C 947.9707 198.6096 943.1194 203.0043 940.482 203.0043 C 938.6892 203.0043 936.3694 201.5976 935.8423 199.6644 C 935.3142 197.7303 938.5844 193.3356 941.8536 187.7106 C 944.5957 182.9649 941.7478 175.4058 941.7478 175.4058 C 941.7478 175.4058 933.3108 178.0428 927.8266 177.3399 C 921.1813 176.4606 917.8063 174 915.2759 174 C 912.6385 174 909.0529 176.2851 909.0529 181.0308 C 909.0529 185.6892 913.5878 185.6892 913.5878 191.0505 C 913.5878 196.5 905.1509 197.8185 900.8266 197.8185 C 896.5022 197.8185 888.17 195.9726 888.17 190.4358 C 888.17 184.7226 892.3885 185.4255 892.3885 181.3827 C 892.3885 177.1644 886.9043 174.1755 878.5721 174.1755 C 870.2399 174.1755 866.3378 175.5822 866.3378 175.5822 Z" fill="black"/>
          <path d="M 866.3378 175.5822 C 866.3378 175.5822 869.1858 183.1404 866.4437 187.887 C 863.2793 193.512 859.9043 197.9058 860.4313 199.8399 C 860.9594 201.7731 863.2793 203.1798 865.0721 203.1798 C 867.8142 203.1798 872.6656 198.7851 876.8851 198.7851 C 881.2094 198.7851 882.1577 204.4101 882.1577 208.4529 C 882.1577 212.4957 878.2556 218.6481 873.0878 218.6481 C 868.0259 218.6481 868.6577 214.9572 864.3344 214.9572 C 860.0101 214.9572 859.7984 219.6156 862.857 224.8887 C 866.0214 230.1618 866.5484 241.8519 866.5484 241.8519 C 866.5484 241.8519 870.4516 240.357 878.7827 240.357 C 887.1149 240.357 892.5991 243.4332 892.5991 247.4769 C 892.5991 251.6952 888.3806 250.9923 888.3806 256.6173 C 888.3806 262.2423 896.7128 264 900.9313 264 C 905.3615 264 913.7984 262.6815 913.7984 257.3202 C 913.7984 251.8707 909.2635 251.8707 909.2635 247.125 C 909.2635 242.4666 912.8491 240.2697 915.4865 240.2697 C 918.018 240.2697 921.393 242.7303 928.0372 243.6096 C 933.5214 244.2243 941.9594 241.6755 941.9594 241.6755 C 941.9594 241.6755 941.4313 229.9863 938.268 224.7132 C 935.2094 219.4392 935.42 214.7808 939.7444 214.7808 C 944.0687 214.7808 943.4358 218.4726 948.4978 218.4726 C 953.6656 218.4726 957.5687 212.3202 957.5687 208.2774 C 957.5687 204.3219 956.6194 198.6096 952.295 198.6096 C 947.9707 198.6096 943.1194 203.0043 940.482 203.0043 C 938.6892 203.0043 936.3694 201.5976 935.8423 199.6644 C 935.3142 197.7303 938.5844 193.3356 941.8536 187.7106 C 944.5957 182.9649 941.7478 175.4058 941.7478 175.4058 C 941.7478 175.4058 933.3108 178.0428 927.8266 177.3399 C 921.1813 176.4606 917.8063 174 915.2759 174 C 912.6385 174 909.0529 176.2851 909.0529 181.0308 C 909.0529 185.6892 913.5878 185.6892 913.5878 191.0505 C 913.5878 196.5 905.1509 197.8185 900.8266 197.8185 C 896.5022 197.8185 888.17 195.9726 888.17 190.4358 C 888.17 184.7226 892.3885 185.4255 892.3885 181.3827 C 892.3885 177.1644 886.9043 174.1755 878.5721 174.1755 C 870.2399 174.1755 866.3378 175.5822 866.3378 175.5822 Z" stroke="gray" stroke-linecap="round" stroke-linejoin="round" stroke-width="1"/>
        </g>
        <g id="Graphic_20">
          <path d="M 983.6622 265.5822 C 983.6622 265.5822 980.8142 273.1404 983.5563 277.887 C 986.7207 283.512 990.0957 287.9058 989.5687 289.8399 C 989.0406 291.7731 986.7207 293.1798 984.9279 293.1798 C 982.1858 293.1798 977.3344 288.7851 973.1149 288.7851 C 968.7906 288.7851 967.8423 294.4101 967.8423 298.4529 C 967.8423 302.4957 971.7444 308.6481 976.9122 308.6481 C 981.9741 308.6481 981.3423 304.9572 985.6656 304.9572 C 989.9899 304.9572 990.2016 309.6156 987.143 314.8887 C 983.9786 320.1618 983.4516 331.8519 983.4516 331.8519 C 983.4516 331.8519 979.5484 330.357 971.2173 330.357 C 962.8851 330.357 957.4009 333.4332 957.4009 337.4769 C 957.4009 341.6952 961.6194 340.9923 961.6194 346.6173 C 961.6194 352.2423 953.2872 354 949.0687 354 C 944.6385 354 936.2016 352.6815 936.2016 347.3202 C 936.2016 341.8707 940.7365 341.8707 940.7365 337.125 C 940.7365 332.4666 937.1509 330.2697 934.5135 330.2697 C 931.982 330.2697 928.607 332.7303 921.9628 333.6096 C 916.4786 334.2243 908.0406 331.6755 908.0406 331.6755 C 908.0406 331.6755 908.5687 319.9863 911.732 314.7132 C 914.7906 309.4392 914.58 304.7808 910.2556 304.7808 C 905.9313 304.7808 906.5642 308.4726 901.5022 308.4726 C 896.3344 308.4726 892.4313 302.3202 892.4313 298.2774 C 892.4313 294.3219 893.3806 288.6096 897.705 288.6096 C 902.0293 288.6096 906.8806 293.0043 909.518 293.0043 C 911.3108 293.0043 913.6306 291.5976 914.1577 289.6644 C 914.6858 287.7303 911.4156 283.3356 908.1464 277.7106 C 905.4043 272.9649 908.2522 265.4058 908.2522 265.4058 C 908.2522 265.4058 916.6892 268.0428 922.1734 267.3399 C 928.8187 266.4606 932.1937 264 934.7241 264 C 937.3615 264 940.9471 266.2851 940.9471 271.0308 C 940.9471 275.6892 936.4122 275.6892 936.4122 281.0505 C 936.4122 286.5 944.8491 287.8185 949.1734 287.8185 C 953.4978 287.8185 961.83 285.9726 961.83 280.4358 C 961.83 274.7226 957.6115 275.4255 957.6115 271.3827 C 957.6115 267.1644 963.0957 264.1755 971.4279 264.1755 C 979.7601 264.1755 983.6622 265.5822 983.6622 265.5822 Z" fill="red"/>
          <path d="M 983.6622 265.5822 C 983.6622 265.5822 980.8142 273.1404 983.5563 277.887 C 986.7207 283.512 990.0957 287.9058 989.5687 289.8399 C 989.0406 291.7731 986.7207 293.1798 984.9279 293.1798 C 982.1858 293.1798 977.3344 288.7851 973.1149 288.7851 C 968.7906 288.7851 967.8423 294.4101 967.8423 298.4529 C 967.8423 302.4957 971.7444 308.6481 976.9122 308.6481 C 981.9741 308.6481 981.3423 304.9572 985.6656 304.9572 C 989.9899 304.9572 990.2016 309.6156 987.143 314.8887 C 983.9786 320.1618 983.4516 331.8519 983.4516 331.8519 C 983.4516 331.8519 979.5484 330.357 971.2173 330.357 C 962.8851 330.357 957.4009 333.4332 957.4009 337.4769 C 957.4009 341.6952 961.6194 340.9923 961.6194 346.6173 C 961.6194 352.2423 953.2872 354 949.0687 354 C 944.6385 354 936.2016 352.6815 936.2016 347.3202 C 936.2016 341.8707 940.7365 341.8707 940.7365 337.125 C 940.7365 332.4666 937.1509 330.2697 934.5135 330.2697 C 931.982 330.2697 928.607 332.7303 921.9628 333.6096 C 916.4786 334.2243 908.0406 331.6755 908.0406 331.6755 C 908.0406 331.6755 908.5687 319.9863 911.732 314.7132 C 914.7906 309.4392 914.58 304.7808 910.2556 304.7808 C 905.9313 304.7808 906.5642 308.4726 901.5022 308.4726 C 896.3344 308.4726 892.4313 302.3202 892.4313 298.2774 C 892.4313 294.3219 893.3806 288.6096 897.705 288.6096 C 902.0293 288.6096 906.8806 293.0043 909.518 293.0043 C 911.3108 293.0043 913.6306 291.5976 914.1577 289.6644 C 914.6858 287.7303 911.4156 283.3356 908.1464 277.7106 C 905.4043 272.9649 908.2522 265.4058 908.2522 265.4058 C 908.2522 265.4058 916.6892 268.0428 922.1734 267.3399 C 928.8187 266.4606 932.1937 264 934.7241 264 C 937.3615 264 940.9471 266.2851 940.9471 271.0308 C 940.9471 275.6892 936.4122 275.6892 936.4122 281.0505 C 936.4122 286.5 944.8491 287.8185 949.1734 287.8185 C 953.4978 287.8185 961.83 285.9726 961.83 280.4358 C 961.83 274.7226 957.6115 275.4255 957.6115 271.3827 C 957.6115 267.1644 963.0957 264.1755 971.4279 264.1755 C 979.7601 264.1755 983.6622 265.5822 983.6622 265.5822 Z" stroke="gray" stroke-linecap="round" stroke-linejoin="round" stroke-width="1"/>
        </g>
        <g id="Graphic_21">
          <path d="M 1059.6622 265.5822 C 1059.6622 265.5822 1056.8142 273.1404 1059.5563 277.887 C 1062.7207 283.512 1066.0957 287.9058 1065.5687 289.8399 C 1065.0406 291.7731 1062.7207 293.1798 1060.9279 293.1798 C 1058.1858 293.1798 1053.3344 288.7851 1049.1149 288.7851 C 1044.7906 288.7851 1043.8423 294.4101 1043.8423 298.4529 C 1043.8423 302.4957 1047.7444 308.6481 1052.9122 308.6481 C 1057.9741 308.6481 1057.3423 304.9572 1061.6656 304.9572 C 1065.9899 304.9572 1066.2016 309.6156 1063.143 314.8887 C 1059.9786 320.1618 1059.4516 331.8519 1059.4516 331.8519 C 1059.4516 331.8519 1055.5484 330.357 1047.2173 330.357 C 1038.8851 330.357 1033.4009 333.4332 1033.4009 337.4769 C 1033.4009 341.6952 1037.6194 340.9923 1037.6194 346.6173 C 1037.6194 352.2423 1029.2872 354 1025.0687 354 C 1020.6385 354 1012.2016 352.6815 1012.2016 347.3202 C 1012.2016 341.8707 1016.7365 341.8707 1016.7365 337.125 C 1016.7365 332.4666 1013.1509 330.2697 1010.5135 330.2697 C 1007.982 330.2697 1004.607 332.7303 997.9628 333.6096 C 992.4786 334.2243 984.0406 331.6755 984.0406 331.6755 C 984.0406 331.6755 984.5687 319.9863 987.732 314.7132 C 990.7906 309.4392 990.58 304.7808 986.2556 304.7808 C 981.9313 304.7808 982.5642 308.4726 977.5022 308.4726 C 972.3344 308.4726 968.4313 302.3202 968.4313 298.2774 C 968.4313 294.3219 969.3806 288.6096 973.705 288.6096 C 978.0293 288.6096 982.8806 293.0043 985.518 293.0043 C 987.3108 293.0043 989.6306 291.5976 990.1577 289.6644 C 990.6858 287.7303 987.4156 283.3356 984.1464 277.7106 C 981.4043 272.9649 984.2522 265.4058 984.2522 265.4058 C 984.2522 265.4058 992.6892 268.0428 998.1734 267.3399 C 1004.8187 266.4606 1008.1937 264 1010.7241 264 C 1013.3615 264 1016.9471 266.2851 1016.9471 271.0308 C 1016.9471 275.6892 1012.4122 275.6892 1012.4122 281.0505 C 1012.4122 286.5 1020.8491 287.8185 1025.1734 287.8185 C 1029.4978 287.8185 1037.83 285.9726 1037.83 280.4358 C 1037.83 274.7226 1033.6115 275.4255 1033.6115 271.3827 C 1033.6115 267.1644 1039.0957 264.1755 1047.4279 264.1755 C 1055.7601 264.1755 1059.6622 265.5822 1059.6622 265.5822 Z" fill="white"/>
          <path d="M 1059.6622 265.5822 C 1059.6622 265.5822 1056.8142 273.1404 1059.5563 277.887 C 1062.7207 283.512 1066.0957 287.9058 1065.5687 289.8399 C 1065.0406 291.7731 1062.7207 293.1798 1060.9279 293.1798 C 1058.1858 293.1798 1053.3344 288.7851 1049.1149 288.7851 C 1044.7906 288.7851 1043.8423 294.4101 1043.8423 298.4529 C 1043.8423 302.4957 1047.7444 308.6481 1052.9122 308.6481 C 1057.9741 308.6481 1057.3423 304.9572 1061.6656 304.9572 C 1065.9899 304.9572 1066.2016 309.6156 1063.143 314.8887 C 1059.9786 320.1618 1059.4516 331.8519 1059.4516 331.8519 C 1059.4516 331.8519 1055.5484 330.357 1047.2173 330.357 C 1038.8851 330.357 1033.4009 333.4332 1033.4009 337.4769 C 1033.4009 341.6952 1037.6194 340.9923 1037.6194 346.6173 C 1037.6194 352.2423 1029.2872 354 1025.0687 354 C 1020.6385 354 1012.2016 352.6815 1012.2016 347.3202 C 1012.2016 341.8707 1016.7365 341.8707 1016.7365 337.125 C 1016.7365 332.4666 1013.1509 330.2697 1010.5135 330.2697 C 1007.982 330.2697 1004.607 332.7303 997.9628 333.6096 C 992.4786 334.2243 984.0406 331.6755 984.0406 331.6755 C 984.0406 331.6755 984.5687 319.9863 987.732 314.7132 C 990.7906 309.4392 990.58 304.7808 986.2556 304.7808 C 981.9313 304.7808 982.5642 308.4726 977.5022 308.4726 C 972.3344 308.4726 968.4313 302.3202 968.4313 298.2774 C 968.4313 294.3219 969.3806 288.6096 973.705 288.6096 C 978.0293 288.6096 982.8806 293.0043 985.518 293.0043 C 987.3108 293.0043 989.6306 291.5976 990.1577 289.6644 C 990.6858 287.7303 987.4156 283.3356 984.1464 277.7106 C 981.4043 272.9649 984.2522 265.4058 984.2522 265.4058 C 984.2522 265.4058 992.6892 268.0428 998.1734 267.3399 C 1004.8187 266.4606 1008.1937 264 1010.7241 264 C 1013.3615 264 1016.9471 266.2851 1016.9471 271.0308 C 1016.9471 275.6892 1012.4122 275.6892 1012.4122 281.0505 C 1012.4122 286.5 1020.8491 287.8185 1025.1734 287.8185 C 1029.4978 287.8185 1037.83 285.9726 1037.83 280.4358 C 1037.83 274.7226 1033.6115 275.4255 1033.6115 271.3827 C 1033.6115 267.1644 1039.0957 264.1755 1047.4279 264.1755 C 1055.7601 264.1755 1059.6622 265.5822 1059.6622 265.5822 Z" stroke="gray" stroke-linecap="round" stroke-linejoin="round" stroke-width="1"/>
        </g>
        <g id="Graphic_22">
          <path d="M 454.33784 265.5822 C 454.33784 265.5822 457.1858 273.1404 454.4437 277.887 C 451.2793 283.512 447.9043 287.9058 448.4313 289.8399 C 448.95944 291.7731 451.2793 293.1798 453.0721 293.1798 C 455.8142 293.1798 460.66556 288.7851 464.8851 288.7851 C 469.20944 288.7851 470.1577 294.4101 470.1577 298.4529 C 470.1577 302.4957 466.25564 308.6481 461.08784 308.6481 C 456.0259 308.6481 456.6577 304.9572 452.33444 304.9572 C 448.0101 304.9572 447.79844 309.6156 450.857 314.8887 C 454.0214 320.1618 454.54844 331.8519 454.54844 331.8519 C 454.54844 331.8519 458.45156 330.357 466.7827 330.357 C 475.1149 330.357 480.5991 333.4332 480.5991 337.4769 C 480.5991 341.6952 476.38064 340.9923 476.38064 346.6173 C 476.38064 352.2423 484.71284 354 488.9313 354 C 493.3615 354 501.79844 352.6815 501.79844 347.3202 C 501.79844 341.8707 497.2635 341.8707 497.2635 337.125 C 497.2635 332.4666 500.8491 330.2697 503.4865 330.2697 C 506.018 330.2697 509.393 332.7303 516.03716 333.6096 C 521.5214 334.2243 529.95944 331.6755 529.95944 331.6755 C 529.95944 331.6755 529.4313 319.9863 526.268 314.7132 C 523.20944 309.4392 523.42004 304.7808 527.74436 304.7808 C 532.0687 304.7808 531.4358 308.4726 536.49776 308.4726 C 541.66556 308.4726 545.5687 302.3202 545.5687 298.2774 C 545.5687 294.3219 544.61936 288.6096 540.29504 288.6096 C 535.9707 288.6096 531.11936 293.0043 528.482 293.0043 C 526.6892 293.0043 524.36936 291.5976 523.8423 289.6644 C 523.3142 287.7303 526.58444 283.3356 529.8536 277.7106 C 532.5957 272.9649 529.74776 265.4058 529.74776 265.4058 C 529.74776 265.4058 521.3108 268.0428 515.82656 267.3399 C 509.1813 266.4606 505.8063 264 503.2759 264 C 500.6385 264 497.0529 266.2851 497.0529 271.0308 C 497.0529 275.6892 501.58784 275.6892 501.58784 281.0505 C 501.58784 286.5 493.1509 287.8185 488.82656 287.8185 C 484.50224 287.8185 476.17004 285.9726 476.17004 280.4358 C 476.17004 274.7226 480.3885 275.4255 480.3885 271.3827 C 480.3885 267.1644 474.9043 264.1755 466.5721 264.1755 C 458.2399 264.1755 454.33784 265.5822 454.33784 265.5822 Z" fill="white"/>
          <path d="M 454.33784 265.5822 C 454.33784 265.5822 457.1858 273.1404 454.4437 277.887 C 451.2793 283.512 447.9043 287.9058 448.4313 289.8399 C 448.95944 291.7731 451.2793 293.1798 453.0721 293.1798 C 455.8142 293.1798 460.66556 288.7851 464.8851 288.7851 C 469.20944 288.7851 470.1577 294.4101 470.1577 298.4529 C 470.1577 302.4957 466.25564 308.6481 461.08784 308.6481 C 456.0259 308.6481 456.6577 304.9572 452.33444 304.9572 C 448.0101 304.9572 447.79844 309.6156 450.857 314.8887 C 454.0214 320.1618 454.54844 331.8519 454.54844 331.8519 C 454.54844 331.8519 458.45156 330.357 466.7827 330.357 C 475.1149 330.357 480.5991 333.4332 480.5991 337.4769 C 480.5991 341.6952 476.38064 340.9923 476.38064 346.6173 C 476.38064 352.2423 484.71284 354 488.9313 354 C 493.3615 354 501.79844 352.6815 501.79844 347.3202 C 501.79844 341.8707 497.2635 341.8707 497.2635 337.125 C 497.2635 332.4666 500.8491 330.2697 503.4865 330.2697 C 506.018 330.2697 509.393 332.7303 516.03716 333.6096 C 521.5214 334.2243 529.95944 331.6755 529.95944 331.6755 C 529.95944 331.6755 529.4313 319.9863 526.268 314.7132 C 523.20944 309.4392 523.42004 304.7808 527.74436 304.7808 C 532.0687 304.7808 531.4358 308.4726 536.49776 308.4726 C 541.66556 308.4726 545.5687 302.3202 545.5687 298.2774 C 545.5687 294.3219 544.61936 288.6096 540.29504 288.6096 C 535.9707 288.6096 531.11936 293.0043 528.482 293.0043 C 526.6892 293.0043 524.36936 291.5976 523.8423 289.6644 C 523.3142 287.7303 526.58444 283.3356 529.8536 277.7106 C 532.5957 272.9649 529.74776 265.4058 529.74776 265.4058 C 529.74776 265.4058 521.3108 268.0428 515.82656 267.3399 C 509.1813 266.4606 505.8063 264 503.2759 264 C 500.6385 264 497.0529 266.2851 497.0529 271.0308 C 497.0529 275.6892 501.58784 275.6892 501.58784 281.0505 C 501.58784 286.5 493.1509 287.8185 488.82656 287.8185 C 484.50224 287.8185 476.17004 285.9726 476.17004 280.4358 C 476.17004 274.7226 480.3885 275.4255 480.3885 271.3827 C 480.3885 267.1644 474.9043 264.1755 466.5721 264.1755 C 458.2399 264.1755 454.33784 265.5822 454.33784 265.5822 Z" stroke="gray" stroke-linecap="round" stroke-linejoin="round" stroke-width="1"/>
        </g>
        <g id="Graphic_23">
          <text transform="translate(608.9856 327)" fill="black">
            <tspan font-family="Papyrus" font-size="41" fill="black" x="0" y="39">Expert-On-Call</tspan>
          </text>
        </g>
        <g id="Graphic_24">
          <path d="M 379.33784 265.5822 C 379.33784 265.5822 382.1858 273.1404 379.4437 277.887 C 376.2793 283.512 372.9043 287.9058 373.4313 289.8399 C 373.95944 291.7731 376.2793 293.1798 378.0721 293.1798 C 380.8142 293.1798 385.66556 288.7851 389.8851 288.7851 C 394.20944 288.7851 395.1577 294.4101 395.1577 298.4529 C 395.1577 302.4957 391.25564 308.6481 386.08784 308.6481 C 381.0259 308.6481 381.6577 304.9572 377.33444 304.9572 C 373.0101 304.9572 372.79844 309.6156 375.857 314.8887 C 379.0214 320.1618 379.54844 331.8519 379.54844 331.8519 C 379.54844 331.8519 383.45156 330.357 391.7827 330.357 C 400.1149 330.357 405.5991 333.4332 405.5991 337.4769 C 405.5991 341.6952 401.38064 340.9923 401.38064 346.6173 C 401.38064 352.2423 409.71284 354 413.9313 354 C 418.3615 354 426.79844 352.6815 426.79844 347.3202 C 426.79844 341.8707 422.2635 341.8707 422.2635 337.125 C 422.2635 332.4666 425.8491 330.2697 428.4865 330.2697 C 431.018 330.2697 434.393 332.7303 441.03716 333.6096 C 446.5214 334.2243 454.95944 331.6755 454.95944 331.6755 C 454.95944 331.6755 454.4313 319.9863 451.268 314.7132 C 448.20944 309.4392 448.42004 304.7808 452.74436 304.7808 C 457.0687 304.7808 456.4358 308.4726 461.49776 308.4726 C 466.66556 308.4726 470.5687 302.3202 470.5687 298.2774 C 470.5687 294.3219 469.61936 288.6096 465.29504 288.6096 C 460.9707 288.6096 456.11936 293.0043 453.482 293.0043 C 451.6892 293.0043 449.36936 291.5976 448.8423 289.6644 C 448.3142 287.7303 451.58444 283.3356 454.8536 277.7106 C 457.5957 272.9649 454.74776 265.4058 454.74776 265.4058 C 454.74776 265.4058 446.3108 268.0428 440.82656 267.3399 C 434.1813 266.4606 430.8063 264 428.2759 264 C 425.6385 264 422.0529 266.2851 422.0529 271.0308 C 422.0529 275.6892 426.58784 275.6892 426.58784 281.0505 C 426.58784 286.5 418.1509 287.8185 413.82656 287.8185 C 409.50224 287.8185 401.17004 285.9726 401.17004 280.4358 C 401.17004 274.7226 405.3885 275.4255 405.3885 271.3827 C 405.3885 267.1644 399.9043 264.1755 391.5721 264.1755 C 383.2399 264.1755 379.33784 265.5822 379.33784 265.5822 Z" fill="red"/>
          <path d="M 379.33784 265.5822 C 379.33784 265.5822 382.1858 273.1404 379.4437 277.887 C 376.2793 283.512 372.9043 287.9058 373.4313 289.8399 C 373.95944 291.7731 376.2793 293.1798 378.0721 293.1798 C 380.8142 293.1798 385.66556 288.7851 389.8851 288.7851 C 394.20944 288.7851 395.1577 294.4101 395.1577 298.4529 C 395.1577 302.4957 391.25564 308.6481 386.08784 308.6481 C 381.0259 308.6481 381.6577 304.9572 377.33444 304.9572 C 373.0101 304.9572 372.79844 309.6156 375.857 314.8887 C 379.0214 320.1618 379.54844 331.8519 379.54844 331.8519 C 379.54844 331.8519 383.45156 330.357 391.7827 330.357 C 400.1149 330.357 405.5991 333.4332 405.5991 337.4769 C 405.5991 341.6952 401.38064 340.9923 401.38064 346.6173 C 401.38064 352.2423 409.71284 354 413.9313 354 C 418.3615 354 426.79844 352.6815 426.79844 347.3202 C 426.79844 341.8707 422.2635 341.8707 422.2635 337.125 C 422.2635 332.4666 425.8491 330.2697 428.4865 330.2697 C 431.018 330.2697 434.393 332.7303 441.03716 333.6096 C 446.5214 334.2243 454.95944 331.6755 454.95944 331.6755 C 454.95944 331.6755 454.4313 319.9863 451.268 314.7132 C 448.20944 309.4392 448.42004 304.7808 452.74436 304.7808 C 457.0687 304.7808 456.4358 308.4726 461.49776 308.4726 C 466.66556 308.4726 470.5687 302.3202 470.5687 298.2774 C 470.5687 294.3219 469.61936 288.6096 465.29504 288.6096 C 460.9707 288.6096 456.11936 293.0043 453.482 293.0043 C 451.6892 293.0043 449.36936 291.5976 448.8423 289.6644 C 448.3142 287.7303 451.58444 283.3356 454.8536 277.7106 C 457.5957 272.9649 454.74776 265.4058 454.74776 265.4058 C 454.74776 265.4058 446.3108 268.0428 440.82656 267.3399 C 434.1813 266.4606 430.8063 264 428.2759 264 C 425.6385 264 422.0529 266.2851 422.0529 271.0308 C 422.0529 275.6892 426.58784 275.6892 426.58784 281.0505 C 426.58784 286.5 418.1509 287.8185 413.82656 287.8185 C 409.50224 287.8185 401.17004 285.9726 401.17004 280.4358 C 401.17004 274.7226 405.3885 275.4255 405.3885 271.3827 C 405.3885 267.1644 399.9043 264.1755 391.5721 264.1755 C 383.2399 264.1755 379.33784 265.5822 379.33784 265.5822 Z" stroke="gray" stroke-linecap="round" stroke-linejoin="round" stroke-width="1"/>
        </g>
        <g id="Graphic_25">
          <path d="M 1134.6622 265.5822 C 1134.6622 265.5822 1131.8142 273.1404 1134.5563 277.887 C 1137.7207 283.512 1141.0957 287.9058 1140.5687 289.8399 C 1140.0406 291.7731 1137.7207 293.1798 1135.9279 293.1798 C 1133.1858 293.1798 1128.3344 288.7851 1124.1149 288.7851 C 1119.7906 288.7851 1118.8423 294.4101 1118.8423 298.4529 C 1118.8423 302.4957 1122.7444 308.6481 1127.9122 308.6481 C 1132.9741 308.6481 1132.3423 304.9572 1136.6656 304.9572 C 1140.9899 304.9572 1141.2016 309.6156 1138.143 314.8887 C 1134.9786 320.1618 1134.4516 331.8519 1134.4516 331.8519 C 1134.4516 331.8519 1130.5484 330.357 1122.2173 330.357 C 1113.8851 330.357 1108.4009 333.4332 1108.4009 337.4769 C 1108.4009 341.6952 1112.6194 340.9923 1112.6194 346.6173 C 1112.6194 352.2423 1104.2872 354 1100.0687 354 C 1095.6385 354 1087.2016 352.6815 1087.2016 347.3202 C 1087.2016 341.8707 1091.7365 341.8707 1091.7365 337.125 C 1091.7365 332.4666 1088.1509 330.2697 1085.5135 330.2697 C 1082.982 330.2697 1079.607 332.7303 1072.9628 333.6096 C 1067.4786 334.2243 1059.0406 331.6755 1059.0406 331.6755 C 1059.0406 331.6755 1059.5687 319.9863 1062.732 314.7132 C 1065.7906 309.4392 1065.58 304.7808 1061.2556 304.7808 C 1056.9313 304.7808 1057.5642 308.4726 1052.5022 308.4726 C 1047.3344 308.4726 1043.4313 302.3202 1043.4313 298.2774 C 1043.4313 294.3219 1044.3806 288.6096 1048.705 288.6096 C 1053.0293 288.6096 1057.8806 293.0043 1060.518 293.0043 C 1062.3108 293.0043 1064.6306 291.5976 1065.1577 289.6644 C 1065.6858 287.7303 1062.4156 283.3356 1059.1464 277.7106 C 1056.4043 272.9649 1059.2522 265.4058 1059.2522 265.4058 C 1059.2522 265.4058 1067.6892 268.0428 1073.1734 267.3399 C 1079.8187 266.4606 1083.1937 264 1085.7241 264 C 1088.3615 264 1091.9471 266.2851 1091.9471 271.0308 C 1091.9471 275.6892 1087.4122 275.6892 1087.4122 281.0505 C 1087.4122 286.5 1095.8491 287.8185 1100.1734 287.8185 C 1104.4978 287.8185 1112.83 285.9726 1112.83 280.4358 C 1112.83 274.7226 1108.6115 275.4255 1108.6115 271.3827 C 1108.6115 267.1644 1114.0957 264.1755 1122.4279 264.1755 C 1130.7601 264.1755 1134.6622 265.5822 1134.6622 265.5822 Z" fill="blue"/>
          <path d="M 1134.6622 265.5822 C 1134.6622 265.5822 1131.8142 273.1404 1134.5563 277.887 C 1137.7207 283.512 1141.0957 287.9058 1140.5687 289.8399 C 1140.0406 291.7731 1137.7207 293.1798 1135.9279 293.1798 C 1133.1858 293.1798 1128.3344 288.7851 1124.1149 288.7851 C 1119.7906 288.7851 1118.8423 294.4101 1118.8423 298.4529 C 1118.8423 302.4957 1122.7444 308.6481 1127.9122 308.6481 C 1132.9741 308.6481 1132.3423 304.9572 1136.6656 304.9572 C 1140.9899 304.9572 1141.2016 309.6156 1138.143 314.8887 C 1134.9786 320.1618 1134.4516 331.8519 1134.4516 331.8519 C 1134.4516 331.8519 1130.5484 330.357 1122.2173 330.357 C 1113.8851 330.357 1108.4009 333.4332 1108.4009 337.4769 C 1108.4009 341.6952 1112.6194 340.9923 1112.6194 346.6173 C 1112.6194 352.2423 1104.2872 354 1100.0687 354 C 1095.6385 354 1087.2016 352.6815 1087.2016 347.3202 C 1087.2016 341.8707 1091.7365 341.8707 1091.7365 337.125 C 1091.7365 332.4666 1088.1509 330.2697 1085.5135 330.2697 C 1082.982 330.2697 1079.607 332.7303 1072.9628 333.6096 C 1067.4786 334.2243 1059.0406 331.6755 1059.0406 331.6755 C 1059.0406 331.6755 1059.5687 319.9863 1062.732 314.7132 C 1065.7906 309.4392 1065.58 304.7808 1061.2556 304.7808 C 1056.9313 304.7808 1057.5642 308.4726 1052.5022 308.4726 C 1047.3344 308.4726 1043.4313 302.3202 1043.4313 298.2774 C 1043.4313 294.3219 1044.3806 288.6096 1048.705 288.6096 C 1053.0293 288.6096 1057.8806 293.0043 1060.518 293.0043 C 1062.3108 293.0043 1064.6306 291.5976 1065.1577 289.6644 C 1065.6858 287.7303 1062.4156 283.3356 1059.1464 277.7106 C 1056.4043 272.9649 1059.2522 265.4058 1059.2522 265.4058 C 1059.2522 265.4058 1067.6892 268.0428 1073.1734 267.3399 C 1079.8187 266.4606 1083.1937 264 1085.7241 264 C 1088.3615 264 1091.9471 266.2851 1091.9471 271.0308 C 1091.9471 275.6892 1087.4122 275.6892 1087.4122 281.0505 C 1087.4122 286.5 1095.8491 287.8185 1100.1734 287.8185 C 1104.4978 287.8185 1112.83 285.9726 1112.83 280.4358 C 1112.83 274.7226 1108.6115 275.4255 1108.6115 271.3827 C 1108.6115 267.1644 1114.0957 264.1755 1122.4279 264.1755 C 1130.7601 264.1755 1134.6622 265.5822 1134.6622 265.5822 Z" stroke="gray" stroke-linecap="round" stroke-linejoin="round" stroke-width="1"/>
        </g>
        <g id="Graphic_27">
          <text transform="translate(629.28125 244)" fill="black">
            <tspan font-family="Papyrus" font-size="64" fill="black" x="0" y="60">CKLABs</tspan>
          </text>
        </g>
      </g>
    </g>
  </g>
</svg>
