<?xml version="1.0" encoding="UTF-8" standalone="no"?>
<!DOCTYPE svg PUBLIC "-//W3C//DTD SVG 1.1//EN" "http://www.w3.org/Graphics/SVG/1.1/DTD/svg11.dtd">
<svg xmlns:dc="http://purl.org/dc/elements/1.1/" version="1.1" xmlns:xl="http://www.w3.org/1999/xlink" xmlns="http://www.w3.org/2000/svg" viewBox="358 142 802 334" width="802" height="334">
  <defs>
    <linearGradient x1="0" x2="1" id="Gradient" gradientUnits="userSpaceOnUse">
      <stop offset="0" stop-color="#fbb93e" stop-opacity=".5411266"/>
      <stop offset="1" stop-color="#f8e9da" stop-opacity=".5393217"/>
    </linearGradient>
    <linearGradient id="Obj_Gradient" xl:href="#Gradient" gradientTransform="translate(757 142) rotate(90) scale(334)"/>
  </defs>
  <metadata> Produced by OmniGraffle 7.19.5\n2022-07-26 22:36:31 +0000</metadata>
  <g id="Manufacturing-OnCall" fill="none" stroke="none" stroke-dasharray="none" stroke-opacity="1" fill-opacity="1">
    <title>Manufacturing-OnCall</title>
    <g id="Manufacturing-OnCall_Layer_1">
      <title>Layer 1</title>
      <g id="Graphic_29">
        <ellipse cx="757" cy="309" rx="163.50026125696" ry="167.000266849617" fill="url(#Obj_Gradient)"/>
      </g>
      <g id="Graphic_3">
        <path d="M 520.83784 265.5822 C 520.83784 265.5822 523.6858 273.1404 520.9437 277.887 C 517.7793 283.512 514.4043 287.9058 514.9313 289.8399 C 515.45944 291.7731 517.7793 293.1798 519.5721 293.1798 C 522.3142 293.1798 527.16556 288.7851 531.3851 288.7851 C 535.70944 288.7851 536.6577 294.4101 536.6577 298.4529 C 536.6577 302.4957 532.75564 308.6481 527.58784 308.6481 C 522.5259 308.6481 523.1577 304.9572 518.83444 304.9572 C 514.5101 304.9572 514.29844 309.6156 517.357 314.8887 C 520.5214 320.1618 521.04844 331.8519 521.04844 331.8519 C 521.04844 331.8519 524.95156 330.357 533.2827 330.357 C 541.6149 330.357 547.0991 333.4332 547.0991 337.4769 C 547.0991 341.6952 542.88064 340.9923 542.88064 346.6173 C 542.88064 352.2423 551.21284 354 555.4313 354 C 559.8615 354 568.29844 352.6815 568.29844 347.3202 C 568.29844 341.8707 563.7635 341.8707 563.7635 337.125 C 563.7635 332.4666 567.3491 330.2697 569.9865 330.2697 C 572.518 330.2697 575.893 332.7303 582.53716 333.6096 C 588.0214 334.2243 596.45944 331.6755 596.45944 331.6755 C 596.45944 331.6755 595.9313 319.9863 592.768 314.7132 C 589.70944 309.4392 589.92004 304.7808 594.24436 304.7808 C 598.5687 304.7808 597.9358 308.4726 602.99776 308.4726 C 608.16556 308.4726 612.0687 302.3202 612.0687 298.2774 C 612.0687 294.3219 611.11936 288.6096 606.79504 288.6096 C 602.4707 288.6096 597.61936 293.0043 594.982 293.0043 C 593.1892 293.0043 590.86936 291.5976 590.3423 289.6644 C 589.8142 287.7303 593.08444 283.3356 596.3536 277.7106 C 599.0957 272.9649 596.24776 265.4058 596.24776 265.4058 C 596.24776 265.4058 587.8108 268.0428 582.32656 267.3399 C 575.6813 266.4606 572.3063 264 569.7759 264 C 567.1385 264 563.5529 266.2851 563.5529 271.0308 C 563.5529 275.6892 568.08784 275.6892 568.08784 281.0505 C 568.08784 286.5 559.6509 287.8185 555.32656 287.8185 C 551.00224 287.8185 542.67004 285.9726 542.67004 280.4358 C 542.67004 274.7226 546.8885 275.4255 546.8885 271.3827 C 546.8885 267.1644 541.4043 264.1755 533.0721 264.1755 C 524.7399 264.1755 520.83784 265.5822 520.83784 265.5822 Z" fill="#fbb93e" fill-opacity=".5"/>
      </g>
      <g id="Graphic_20">
        <path d="M 997.6622 265.5822 C 997.6622 265.5822 994.8142 273.1404 997.5563 277.887 C 1000.7207 283.512 1004.0957 287.9058 1003.5687 289.8399 C 1003.0406 291.7731 1000.7207 293.1798 998.9279 293.1798 C 996.1858 293.1798 991.3344 288.7851 987.1149 288.7851 C 982.7906 288.7851 981.8423 294.4101 981.8423 298.4529 C 981.8423 302.4957 985.7444 308.6481 990.9122 308.6481 C 995.9741 308.6481 995.3423 304.9572 999.6656 304.9572 C 1003.9899 304.9572 1004.2016 309.6156 1001.143 314.8887 C 997.9786 320.1618 997.4516 331.8519 997.4516 331.8519 C 997.4516 331.8519 993.5484 330.357 985.2173 330.357 C 976.8851 330.357 971.4009 333.4332 971.4009 337.4769 C 971.4009 341.6952 975.6194 340.9923 975.6194 346.6173 C 975.6194 352.2423 967.2872 354 963.0687 354 C 958.6385 354 950.2016 352.6815 950.2016 347.3202 C 950.2016 341.8707 954.7365 341.8707 954.7365 337.125 C 954.7365 332.4666 951.1509 330.2697 948.5135 330.2697 C 945.982 330.2697 942.607 332.7303 935.9628 333.6096 C 930.4786 334.2243 922.0406 331.6755 922.0406 331.6755 C 922.0406 331.6755 922.5687 319.9863 925.732 314.7132 C 928.7906 309.4392 928.58 304.7808 924.2556 304.7808 C 919.9313 304.7808 920.5642 308.4726 915.5022 308.4726 C 910.3344 308.4726 906.4313 302.3202 906.4313 298.2774 C 906.4313 294.3219 907.3806 288.6096 911.705 288.6096 C 916.0293 288.6096 920.8806 293.0043 923.518 293.0043 C 925.3108 293.0043 927.6306 291.5976 928.1577 289.6644 C 928.6858 287.7303 925.4156 283.3356 922.1464 277.7106 C 919.4043 272.9649 922.2522 265.4058 922.2522 265.4058 C 922.2522 265.4058 930.6892 268.0428 936.1734 267.3399 C 942.8187 266.4606 946.1937 264 948.7241 264 C 951.3615 264 954.9471 266.2851 954.9471 271.0308 C 954.9471 275.6892 950.4122 275.6892 950.4122 281.0505 C 950.4122 286.5 958.8491 287.8185 963.1734 287.8185 C 967.4978 287.8185 975.83 285.9726 975.83 280.4358 C 975.83 274.7226 971.6115 275.4255 971.6115 271.3827 C 971.6115 267.1644 977.0957 264.1755 985.4279 264.1755 C 993.7601 264.1755 997.6622 265.5822 997.6622 265.5822 Z" fill="#fbb93e" fill-opacity=".5036232"/>
      </g>
      <g id="Graphic_21">
        <path d="M 1073.1622 265.5822 C 1073.1622 265.5822 1070.3142 273.1404 1073.0563 277.887 C 1076.2207 283.512 1079.5957 287.9058 1079.0687 289.8399 C 1078.5406 291.7731 1076.2207 293.1798 1074.4279 293.1798 C 1071.6858 293.1798 1066.8344 288.7851 1062.6149 288.7851 C 1058.2906 288.7851 1057.3423 294.4101 1057.3423 298.4529 C 1057.3423 302.4957 1061.2444 308.6481 1066.4122 308.6481 C 1071.4741 308.6481 1070.8423 304.9572 1075.1656 304.9572 C 1079.4899 304.9572 1079.7016 309.6156 1076.643 314.8887 C 1073.4786 320.1618 1072.9516 331.8519 1072.9516 331.8519 C 1072.9516 331.8519 1069.0484 330.357 1060.7173 330.357 C 1052.3851 330.357 1046.9009 333.4332 1046.9009 337.4769 C 1046.9009 341.6952 1051.1194 340.9923 1051.1194 346.6173 C 1051.1194 352.2423 1042.7872 354 1038.5687 354 C 1034.1385 354 1025.7016 352.6815 1025.7016 347.3202 C 1025.7016 341.8707 1030.2365 341.8707 1030.2365 337.125 C 1030.2365 332.4666 1026.6509 330.2697 1024.0135 330.2697 C 1021.482 330.2697 1018.107 332.7303 1011.4628 333.6096 C 1005.9786 334.2243 997.5406 331.6755 997.5406 331.6755 C 997.5406 331.6755 998.0687 319.9863 1001.232 314.7132 C 1004.2906 309.4392 1004.08 304.7808 999.7556 304.7808 C 995.4313 304.7808 996.0642 308.4726 991.0022 308.4726 C 985.8344 308.4726 981.9313 302.3202 981.9313 298.2774 C 981.9313 294.3219 982.8806 288.6096 987.205 288.6096 C 991.5293 288.6096 996.3806 293.0043 999.018 293.0043 C 1000.8108 293.0043 1003.1306 291.5976 1003.6577 289.6644 C 1004.1858 287.7303 1000.9156 283.3356 997.6464 277.7106 C 994.9043 272.9649 997.7522 265.4058 997.7522 265.4058 C 997.7522 265.4058 1006.1892 268.0428 1011.6734 267.3399 C 1018.3187 266.4606 1021.6937 264 1024.2241 264 C 1026.8615 264 1030.4471 266.2851 1030.4471 271.0308 C 1030.4471 275.6892 1025.9122 275.6892 1025.9122 281.0505 C 1025.9122 286.5 1034.3491 287.8185 1038.6734 287.8185 C 1042.9978 287.8185 1051.33 285.9726 1051.33 280.4358 C 1051.33 274.7226 1047.1115 275.4255 1047.1115 271.3827 C 1047.1115 267.1644 1052.5957 264.1755 1060.9279 264.1755 C 1069.2601 264.1755 1073.1622 265.5822 1073.1622 265.5822 Z" fill="white"/>
        <path d="M 1073.1622 265.5822 C 1073.1622 265.5822 1070.3142 273.1404 1073.0563 277.887 C 1076.2207 283.512 1079.5957 287.9058 1079.0687 289.8399 C 1078.5406 291.7731 1076.2207 293.1798 1074.4279 293.1798 C 1071.6858 293.1798 1066.8344 288.7851 1062.6149 288.7851 C 1058.2906 288.7851 1057.3423 294.4101 1057.3423 298.4529 C 1057.3423 302.4957 1061.2444 308.6481 1066.4122 308.6481 C 1071.4741 308.6481 1070.8423 304.9572 1075.1656 304.9572 C 1079.4899 304.9572 1079.7016 309.6156 1076.643 314.8887 C 1073.4786 320.1618 1072.9516 331.8519 1072.9516 331.8519 C 1072.9516 331.8519 1069.0484 330.357 1060.7173 330.357 C 1052.3851 330.357 1046.9009 333.4332 1046.9009 337.4769 C 1046.9009 341.6952 1051.1194 340.9923 1051.1194 346.6173 C 1051.1194 352.2423 1042.7872 354 1038.5687 354 C 1034.1385 354 1025.7016 352.6815 1025.7016 347.3202 C 1025.7016 341.8707 1030.2365 341.8707 1030.2365 337.125 C 1030.2365 332.4666 1026.6509 330.2697 1024.0135 330.2697 C 1021.482 330.2697 1018.107 332.7303 1011.4628 333.6096 C 1005.9786 334.2243 997.5406 331.6755 997.5406 331.6755 C 997.5406 331.6755 998.0687 319.9863 1001.232 314.7132 C 1004.2906 309.4392 1004.08 304.7808 999.7556 304.7808 C 995.4313 304.7808 996.0642 308.4726 991.0022 308.4726 C 985.8344 308.4726 981.9313 302.3202 981.9313 298.2774 C 981.9313 294.3219 982.8806 288.6096 987.205 288.6096 C 991.5293 288.6096 996.3806 293.0043 999.018 293.0043 C 1000.8108 293.0043 1003.1306 291.5976 1003.6577 289.6644 C 1004.1858 287.7303 1000.9156 283.3356 997.6464 277.7106 C 994.9043 272.9649 997.7522 265.4058 997.7522 265.4058 C 997.7522 265.4058 1006.1892 268.0428 1011.6734 267.3399 C 1018.3187 266.4606 1021.6937 264 1024.2241 264 C 1026.8615 264 1030.4471 266.2851 1030.4471 271.0308 C 1030.4471 275.6892 1025.9122 275.6892 1025.9122 281.0505 C 1025.9122 286.5 1034.3491 287.8185 1038.6734 287.8185 C 1042.9978 287.8185 1051.33 285.9726 1051.33 280.4358 C 1051.33 274.7226 1047.1115 275.4255 1047.1115 271.3827 C 1047.1115 267.1644 1052.5957 264.1755 1060.9279 264.1755 C 1069.2601 264.1755 1073.1622 265.5822 1073.1622 265.5822 Z" stroke="gray" stroke-linecap="round" stroke-linejoin="round" stroke-width="1"/>
      </g>
      <g id="Graphic_22">
        <path d="M 444.83784 265.5822 C 444.83784 265.5822 447.6858 273.1404 444.9437 277.887 C 441.7793 283.512 438.4043 287.9058 438.9313 289.8399 C 439.45944 291.7731 441.7793 293.1798 443.5721 293.1798 C 446.3142 293.1798 451.16556 288.7851 455.3851 288.7851 C 459.70944 288.7851 460.6577 294.4101 460.6577 298.4529 C 460.6577 302.4957 456.75564 308.6481 451.58784 308.6481 C 446.5259 308.6481 447.1577 304.9572 442.83444 304.9572 C 438.5101 304.9572 438.29844 309.6156 441.357 314.8887 C 444.5214 320.1618 445.04844 331.8519 445.04844 331.8519 C 445.04844 331.8519 448.95156 330.357 457.2827 330.357 C 465.6149 330.357 471.0991 333.4332 471.0991 337.4769 C 471.0991 341.6952 466.88064 340.9923 466.88064 346.6173 C 466.88064 352.2423 475.21284 354 479.4313 354 C 483.8615 354 492.29844 352.6815 492.29844 347.3202 C 492.29844 341.8707 487.7635 341.8707 487.7635 337.125 C 487.7635 332.4666 491.3491 330.2697 493.9865 330.2697 C 496.518 330.2697 499.893 332.7303 506.53716 333.6096 C 512.0214 334.2243 520.45944 331.6755 520.45944 331.6755 C 520.45944 331.6755 519.9313 319.9863 516.768 314.7132 C 513.70944 309.4392 513.92004 304.7808 518.24436 304.7808 C 522.5687 304.7808 521.9358 308.4726 526.99776 308.4726 C 532.16556 308.4726 536.0687 302.3202 536.0687 298.2774 C 536.0687 294.3219 535.11936 288.6096 530.79504 288.6096 C 526.4707 288.6096 521.61936 293.0043 518.982 293.0043 C 517.1892 293.0043 514.86936 291.5976 514.3423 289.6644 C 513.8142 287.7303 517.08444 283.3356 520.3536 277.7106 C 523.0957 272.9649 520.24776 265.4058 520.24776 265.4058 C 520.24776 265.4058 511.8108 268.0428 506.32656 267.3399 C 499.6813 266.4606 496.3063 264 493.7759 264 C 491.1385 264 487.5529 266.2851 487.5529 271.0308 C 487.5529 275.6892 492.08784 275.6892 492.08784 281.0505 C 492.08784 286.5 483.6509 287.8185 479.32656 287.8185 C 475.00224 287.8185 466.67004 285.9726 466.67004 280.4358 C 466.67004 274.7226 470.8885 275.4255 470.8885 271.3827 C 470.8885 267.1644 465.4043 264.1755 457.0721 264.1755 C 448.7399 264.1755 444.83784 265.5822 444.83784 265.5822 Z" fill="white"/>
        <path d="M 444.83784 265.5822 C 444.83784 265.5822 447.6858 273.1404 444.9437 277.887 C 441.7793 283.512 438.4043 287.9058 438.9313 289.8399 C 439.45944 291.7731 441.7793 293.1798 443.5721 293.1798 C 446.3142 293.1798 451.16556 288.7851 455.3851 288.7851 C 459.70944 288.7851 460.6577 294.4101 460.6577 298.4529 C 460.6577 302.4957 456.75564 308.6481 451.58784 308.6481 C 446.5259 308.6481 447.1577 304.9572 442.83444 304.9572 C 438.5101 304.9572 438.29844 309.6156 441.357 314.8887 C 444.5214 320.1618 445.04844 331.8519 445.04844 331.8519 C 445.04844 331.8519 448.95156 330.357 457.2827 330.357 C 465.6149 330.357 471.0991 333.4332 471.0991 337.4769 C 471.0991 341.6952 466.88064 340.9923 466.88064 346.6173 C 466.88064 352.2423 475.21284 354 479.4313 354 C 483.8615 354 492.29844 352.6815 492.29844 347.3202 C 492.29844 341.8707 487.7635 341.8707 487.7635 337.125 C 487.7635 332.4666 491.3491 330.2697 493.9865 330.2697 C 496.518 330.2697 499.893 332.7303 506.53716 333.6096 C 512.0214 334.2243 520.45944 331.6755 520.45944 331.6755 C 520.45944 331.6755 519.9313 319.9863 516.768 314.7132 C 513.70944 309.4392 513.92004 304.7808 518.24436 304.7808 C 522.5687 304.7808 521.9358 308.4726 526.99776 308.4726 C 532.16556 308.4726 536.0687 302.3202 536.0687 298.2774 C 536.0687 294.3219 535.11936 288.6096 530.79504 288.6096 C 526.4707 288.6096 521.61936 293.0043 518.982 293.0043 C 517.1892 293.0043 514.86936 291.5976 514.3423 289.6644 C 513.8142 287.7303 517.08444 283.3356 520.3536 277.7106 C 523.0957 272.9649 520.24776 265.4058 520.24776 265.4058 C 520.24776 265.4058 511.8108 268.0428 506.32656 267.3399 C 499.6813 266.4606 496.3063 264 493.7759 264 C 491.1385 264 487.5529 266.2851 487.5529 271.0308 C 487.5529 275.6892 492.08784 275.6892 492.08784 281.0505 C 492.08784 286.5 483.6509 287.8185 479.32656 287.8185 C 475.00224 287.8185 466.67004 285.9726 466.67004 280.4358 C 466.67004 274.7226 470.8885 275.4255 470.8885 271.3827 C 470.8885 267.1644 465.4043 264.1755 457.0721 264.1755 C 448.7399 264.1755 444.83784 265.5822 444.83784 265.5822 Z" stroke="gray" stroke-linecap="round" stroke-linejoin="round" stroke-width="1"/>
      </g>
      <g id="Graphic_23">
        <text transform="translate(610.9856 285)" fill="#003776">
          <tspan font-family="Papyrus" font-size="41" fill="#003776" x="0" y="39">Expert-On-Call</tspan>
        </text>
      </g>
      <g id="Graphic_24">
        <path d="M 369.83784 265.5822 C 369.83784 265.5822 372.6858 273.1404 369.9437 277.887 C 366.7793 283.512 363.4043 287.9058 363.9313 289.8399 C 364.45944 291.7731 366.7793 293.1798 368.5721 293.1798 C 371.3142 293.1798 376.16556 288.7851 380.3851 288.7851 C 384.70944 288.7851 385.6577 294.4101 385.6577 298.4529 C 385.6577 302.4957 381.75564 308.6481 376.58784 308.6481 C 371.5259 308.6481 372.1577 304.9572 367.83444 304.9572 C 363.5101 304.9572 363.29844 309.6156 366.357 314.8887 C 369.5214 320.1618 370.04844 331.8519 370.04844 331.8519 C 370.04844 331.8519 373.95156 330.357 382.2827 330.357 C 390.6149 330.357 396.0991 333.4332 396.0991 337.4769 C 396.0991 341.6952 391.88064 340.9923 391.88064 346.6173 C 391.88064 352.2423 400.21284 354 404.4313 354 C 408.8615 354 417.29844 352.6815 417.29844 347.3202 C 417.29844 341.8707 412.7635 341.8707 412.7635 337.125 C 412.7635 332.4666 416.3491 330.2697 418.9865 330.2697 C 421.518 330.2697 424.893 332.7303 431.53716 333.6096 C 437.0214 334.2243 445.45944 331.6755 445.45944 331.6755 C 445.45944 331.6755 444.9313 319.9863 441.768 314.7132 C 438.70944 309.4392 438.92004 304.7808 443.24436 304.7808 C 447.5687 304.7808 446.9358 308.4726 451.99776 308.4726 C 457.16556 308.4726 461.0687 302.3202 461.0687 298.2774 C 461.0687 294.3219 460.11936 288.6096 455.79504 288.6096 C 451.4707 288.6096 446.61936 293.0043 443.982 293.0043 C 442.1892 293.0043 439.86936 291.5976 439.3423 289.6644 C 438.8142 287.7303 442.08444 283.3356 445.3536 277.7106 C 448.0957 272.9649 445.24776 265.4058 445.24776 265.4058 C 445.24776 265.4058 436.8108 268.0428 431.32656 267.3399 C 424.6813 266.4606 421.3063 264 418.7759 264 C 416.1385 264 412.5529 266.2851 412.5529 271.0308 C 412.5529 275.6892 417.08784 275.6892 417.08784 281.0505 C 417.08784 286.5 408.6509 287.8185 404.32656 287.8185 C 400.00224 287.8185 391.67004 285.9726 391.67004 280.4358 C 391.67004 274.7226 395.8885 275.4255 395.8885 271.3827 C 395.8885 267.1644 390.4043 264.1755 382.0721 264.1755 C 373.7399 264.1755 369.83784 265.5822 369.83784 265.5822 Z" fill="#333"/>
      </g>
      <g id="Graphic_25">
        <path d="M 1148.1622 265.5822 C 1148.1622 265.5822 1145.3142 273.1404 1148.0563 277.887 C 1151.2207 283.512 1154.5957 287.9058 1154.0687 289.8399 C 1153.5406 291.7731 1151.2207 293.1798 1149.4279 293.1798 C 1146.6858 293.1798 1141.8344 288.7851 1137.6149 288.7851 C 1133.2906 288.7851 1132.3423 294.4101 1132.3423 298.4529 C 1132.3423 302.4957 1136.2444 308.6481 1141.4122 308.6481 C 1146.4741 308.6481 1145.8423 304.9572 1150.1656 304.9572 C 1154.4899 304.9572 1154.7016 309.6156 1151.643 314.8887 C 1148.4786 320.1618 1147.9516 331.8519 1147.9516 331.8519 C 1147.9516 331.8519 1144.0484 330.357 1135.7173 330.357 C 1127.3851 330.357 1121.9009 333.4332 1121.9009 337.4769 C 1121.9009 341.6952 1126.1194 340.9923 1126.1194 346.6173 C 1126.1194 352.2423 1117.7872 354 1113.5687 354 C 1109.1385 354 1100.7016 352.6815 1100.7016 347.3202 C 1100.7016 341.8707 1105.2365 341.8707 1105.2365 337.125 C 1105.2365 332.4666 1101.6509 330.2697 1099.0135 330.2697 C 1096.482 330.2697 1093.107 332.7303 1086.4628 333.6096 C 1080.9786 334.2243 1072.5406 331.6755 1072.5406 331.6755 C 1072.5406 331.6755 1073.0687 319.9863 1076.232 314.7132 C 1079.2906 309.4392 1079.08 304.7808 1074.7556 304.7808 C 1070.4313 304.7808 1071.0642 308.4726 1066.0022 308.4726 C 1060.8344 308.4726 1056.9313 302.3202 1056.9313 298.2774 C 1056.9313 294.3219 1057.8806 288.6096 1062.205 288.6096 C 1066.5293 288.6096 1071.3806 293.0043 1074.018 293.0043 C 1075.8108 293.0043 1078.1306 291.5976 1078.6577 289.6644 C 1079.1858 287.7303 1075.9156 283.3356 1072.6464 277.7106 C 1069.9043 272.9649 1072.7522 265.4058 1072.7522 265.4058 C 1072.7522 265.4058 1081.1892 268.0428 1086.6734 267.3399 C 1093.3187 266.4606 1096.6937 264 1099.2241 264 C 1101.8615 264 1105.4471 266.2851 1105.4471 271.0308 C 1105.4471 275.6892 1100.9122 275.6892 1100.9122 281.0505 C 1100.9122 286.5 1109.3491 287.8185 1113.6734 287.8185 C 1117.9978 287.8185 1126.33 285.9726 1126.33 280.4358 C 1126.33 274.7226 1122.1115 275.4255 1122.1115 271.3827 C 1122.1115 267.1644 1127.5957 264.1755 1135.9279 264.1755 C 1144.2601 264.1755 1148.1622 265.5822 1148.1622 265.5822 Z" fill="#333"/>
      </g>
      <g id="Graphic_27">
        <text transform="translate(615.5596 222)" fill="#003776">
          <tspan font-family="Papyrus" font-size="44" fill="#003776" x="0" y="41">Manufacturing</tspan>
        </text>
      </g>
      <g id="Graphic_33">
        <path d="M 596.33784 331.5822 C 596.33784 331.5822 599.1858 339.1404 596.4437 343.887 C 593.2793 349.512 589.9043 353.9058 590.4313 355.8399 C 590.95944 357.7731 593.2793 359.1798 595.0721 359.1798 C 597.8142 359.1798 602.66556 354.7851 606.8851 354.7851 C 611.20944 354.7851 612.1577 360.4101 612.1577 364.4529 C 612.1577 368.4957 608.25564 374.6481 603.08784 374.6481 C 598.0259 374.6481 598.6577 370.9572 594.33444 370.9572 C 590.0101 370.9572 589.79844 375.6156 592.857 380.8887 C 596.0214 386.1618 596.54844 397.8519 596.54844 397.8519 C 596.54844 397.8519 600.45156 396.357 608.7827 396.357 C 617.1149 396.357 622.5991 399.4332 622.5991 403.4769 C 622.5991 407.6952 618.38064 406.9923 618.38064 412.6173 C 618.38064 418.2423 626.71284 420 630.9313 420 C 635.3615 420 643.79844 418.6815 643.79844 413.3202 C 643.79844 407.8707 639.2635 407.8707 639.2635 403.125 C 639.2635 398.4666 642.8491 396.2697 645.4865 396.2697 C 648.018 396.2697 651.393 398.7303 658.03716 399.6096 C 663.5214 400.2243 671.9594 397.6755 671.9594 397.6755 C 671.9594 397.6755 671.4313 385.9863 668.268 380.7132 C 665.20944 375.4392 665.42004 370.7808 669.74436 370.7808 C 674.0687 370.7808 673.4358 374.4726 678.4978 374.4726 C 683.6656 374.4726 687.5687 368.3202 687.5687 364.2774 C 687.5687 360.3219 686.6194 354.6096 682.295 354.6096 C 677.9707 354.6096 673.1194 359.0043 670.482 359.0043 C 668.6892 359.0043 666.36936 357.5976 665.8423 355.6644 C 665.3142 353.7303 668.58444 349.3356 671.8536 343.7106 C 674.5957 338.9649 671.7478 331.4058 671.7478 331.4058 C 671.7478 331.4058 663.3108 334.0428 657.82656 333.3399 C 651.1813 332.4606 647.8063 330 645.2759 330 C 642.6385 330 639.0529 332.2851 639.0529 337.0308 C 639.0529 341.6892 643.58784 341.6892 643.58784 347.0505 C 643.58784 352.5 635.1509 353.8185 630.82656 353.8185 C 626.50224 353.8185 618.17004 351.9726 618.17004 346.4358 C 618.17004 340.7226 622.3885 341.4255 622.3885 337.3827 C 622.3885 333.1644 616.9043 330.1755 608.5721 330.1755 C 600.2399 330.1755 596.33784 331.5822 596.33784 331.5822 Z" fill="#fbb93e" fill-opacity=".30398226"/>
      </g>
      <g id="Graphic_32">
        <path d="M 520.33784 331.5822 C 520.33784 331.5822 523.1858 339.1404 520.4437 343.887 C 517.2793 349.512 513.9043 353.9058 514.4313 355.8399 C 514.95944 357.7731 517.2793 359.1798 519.0721 359.1798 C 521.8142 359.1798 526.66556 354.7851 530.8851 354.7851 C 535.20944 354.7851 536.1577 360.4101 536.1577 364.4529 C 536.1577 368.4957 532.25564 374.6481 527.08784 374.6481 C 522.0259 374.6481 522.6577 370.9572 518.33444 370.9572 C 514.0101 370.9572 513.79844 375.6156 516.857 380.8887 C 520.0214 386.1618 520.54844 397.8519 520.54844 397.8519 C 520.54844 397.8519 524.45156 396.357 532.7827 396.357 C 541.1149 396.357 546.5991 399.4332 546.5991 403.4769 C 546.5991 407.6952 542.38064 406.9923 542.38064 412.6173 C 542.38064 418.2423 550.71284 420 554.9313 420 C 559.3615 420 567.79844 418.6815 567.79844 413.3202 C 567.79844 407.8707 563.2635 407.8707 563.2635 403.125 C 563.2635 398.4666 566.8491 396.2697 569.4865 396.2697 C 572.018 396.2697 575.393 398.7303 582.03716 399.6096 C 587.5214 400.2243 595.95944 397.6755 595.95944 397.6755 C 595.95944 397.6755 595.4313 385.9863 592.268 380.7132 C 589.20944 375.4392 589.42004 370.7808 593.74436 370.7808 C 598.0687 370.7808 597.4358 374.4726 602.49776 374.4726 C 607.66556 374.4726 611.5687 368.3202 611.5687 364.2774 C 611.5687 360.3219 610.61936 354.6096 606.29504 354.6096 C 601.9707 354.6096 597.11936 359.0043 594.482 359.0043 C 592.6892 359.0043 590.36936 357.5976 589.8423 355.6644 C 589.3142 353.7303 592.58444 349.3356 595.8536 343.7106 C 598.5957 338.9649 595.74776 331.4058 595.74776 331.4058 C 595.74776 331.4058 587.3108 334.0428 581.82656 333.3399 C 575.1813 332.4606 571.8063 330 569.2759 330 C 566.6385 330 563.0529 332.2851 563.0529 337.0308 C 563.0529 341.6892 567.58784 341.6892 567.58784 347.0505 C 567.58784 352.5 559.1509 353.8185 554.82656 353.8185 C 550.50224 353.8185 542.17004 351.9726 542.17004 346.4358 C 542.17004 340.7226 546.3885 341.4255 546.3885 337.3827 C 546.3885 333.1644 540.9043 330.1755 532.5721 330.1755 C 524.2399 330.1755 520.33784 331.5822 520.33784 331.5822 Z" fill="white"/>
        <path d="M 520.33784 331.5822 C 520.33784 331.5822 523.1858 339.1404 520.4437 343.887 C 517.2793 349.512 513.9043 353.9058 514.4313 355.8399 C 514.95944 357.7731 517.2793 359.1798 519.0721 359.1798 C 521.8142 359.1798 526.66556 354.7851 530.8851 354.7851 C 535.20944 354.7851 536.1577 360.4101 536.1577 364.4529 C 536.1577 368.4957 532.25564 374.6481 527.08784 374.6481 C 522.0259 374.6481 522.6577 370.9572 518.33444 370.9572 C 514.0101 370.9572 513.79844 375.6156 516.857 380.8887 C 520.0214 386.1618 520.54844 397.8519 520.54844 397.8519 C 520.54844 397.8519 524.45156 396.357 532.7827 396.357 C 541.1149 396.357 546.5991 399.4332 546.5991 403.4769 C 546.5991 407.6952 542.38064 406.9923 542.38064 412.6173 C 542.38064 418.2423 550.71284 420 554.9313 420 C 559.3615 420 567.79844 418.6815 567.79844 413.3202 C 567.79844 407.8707 563.2635 407.8707 563.2635 403.125 C 563.2635 398.4666 566.8491 396.2697 569.4865 396.2697 C 572.018 396.2697 575.393 398.7303 582.03716 399.6096 C 587.5214 400.2243 595.95944 397.6755 595.95944 397.6755 C 595.95944 397.6755 595.4313 385.9863 592.268 380.7132 C 589.20944 375.4392 589.42004 370.7808 593.74436 370.7808 C 598.0687 370.7808 597.4358 374.4726 602.49776 374.4726 C 607.66556 374.4726 611.5687 368.3202 611.5687 364.2774 C 611.5687 360.3219 610.61936 354.6096 606.29504 354.6096 C 601.9707 354.6096 597.11936 359.0043 594.482 359.0043 C 592.6892 359.0043 590.36936 357.5976 589.8423 355.6644 C 589.3142 353.7303 592.58444 349.3356 595.8536 343.7106 C 598.5957 338.9649 595.74776 331.4058 595.74776 331.4058 C 595.74776 331.4058 587.3108 334.0428 581.82656 333.3399 C 575.1813 332.4606 571.8063 330 569.2759 330 C 566.6385 330 563.0529 332.2851 563.0529 337.0308 C 563.0529 341.6892 567.58784 341.6892 567.58784 347.0505 C 567.58784 352.5 559.1509 353.8185 554.82656 353.8185 C 550.50224 353.8185 542.17004 351.9726 542.17004 346.4358 C 542.17004 340.7226 546.3885 341.4255 546.3885 337.3827 C 546.3885 333.1644 540.9043 330.1755 532.5721 330.1755 C 524.2399 330.1755 520.33784 331.5822 520.33784 331.5822 Z" stroke="gray" stroke-linecap="round" stroke-linejoin="round" stroke-width="1"/>
      </g>
      <g id="Graphic_31">
        <path d="M 445.33784 331.5822 C 445.33784 331.5822 448.1858 339.1404 445.4437 343.887 C 442.2793 349.512 438.9043 353.9058 439.4313 355.8399 C 439.95944 357.7731 442.2793 359.1798 444.0721 359.1798 C 446.8142 359.1798 451.66556 354.7851 455.8851 354.7851 C 460.20944 354.7851 461.1577 360.4101 461.1577 364.4529 C 461.1577 368.4957 457.25564 374.6481 452.08784 374.6481 C 447.0259 374.6481 447.6577 370.9572 443.33444 370.9572 C 439.0101 370.9572 438.79844 375.6156 441.857 380.8887 C 445.0214 386.1618 445.54844 397.8519 445.54844 397.8519 C 445.54844 397.8519 449.45156 396.357 457.7827 396.357 C 466.1149 396.357 471.5991 399.4332 471.5991 403.4769 C 471.5991 407.6952 467.38064 406.9923 467.38064 412.6173 C 467.38064 418.2423 475.71284 420 479.9313 420 C 484.3615 420 492.79844 418.6815 492.79844 413.3202 C 492.79844 407.8707 488.2635 407.8707 488.2635 403.125 C 488.2635 398.4666 491.8491 396.2697 494.4865 396.2697 C 497.018 396.2697 500.393 398.7303 507.03716 399.6096 C 512.5214 400.2243 520.95944 397.6755 520.95944 397.6755 C 520.95944 397.6755 520.4313 385.9863 517.268 380.7132 C 514.20944 375.4392 514.42004 370.7808 518.74436 370.7808 C 523.0687 370.7808 522.4358 374.4726 527.49776 374.4726 C 532.66556 374.4726 536.5687 368.3202 536.5687 364.2774 C 536.5687 360.3219 535.61936 354.6096 531.29504 354.6096 C 526.9707 354.6096 522.11936 359.0043 519.482 359.0043 C 517.6892 359.0043 515.36936 357.5976 514.8423 355.6644 C 514.3142 353.7303 517.58444 349.3356 520.8536 343.7106 C 523.5957 338.9649 520.74776 331.4058 520.74776 331.4058 C 520.74776 331.4058 512.3108 334.0428 506.82656 333.3399 C 500.1813 332.4606 496.8063 330 494.2759 330 C 491.6385 330 488.0529 332.2851 488.0529 337.0308 C 488.0529 341.6892 492.58784 341.6892 492.58784 347.0505 C 492.58784 352.5 484.1509 353.8185 479.82656 353.8185 C 475.50224 353.8185 467.17004 351.9726 467.17004 346.4358 C 467.17004 340.7226 471.3885 341.4255 471.3885 337.3827 C 471.3885 333.1644 465.9043 330.1755 457.5721 330.1755 C 449.2399 330.1755 445.33784 331.5822 445.33784 331.5822 Z" fill="#333"/>
      </g>
      <g id="Graphic_36">
        <path d="M 921.6622 331.5822 C 921.6622 331.5822 918.8142 339.1404 921.5563 343.887 C 924.7207 349.512 928.0957 353.9058 927.5687 355.8399 C 927.0406 357.7731 924.7207 359.1798 922.9279 359.1798 C 920.1858 359.1798 915.3344 354.7851 911.1149 354.7851 C 906.7906 354.7851 905.8423 360.4101 905.8423 364.4529 C 905.8423 368.4957 909.7444 374.6481 914.9122 374.6481 C 919.9741 374.6481 919.3423 370.9572 923.6656 370.9572 C 927.9899 370.9572 928.2016 375.6156 925.143 380.8887 C 921.9786 386.1618 921.4516 397.8519 921.4516 397.8519 C 921.4516 397.8519 917.5484 396.357 909.2173 396.357 C 900.8851 396.357 895.4009 399.4332 895.4009 403.4769 C 895.4009 407.6952 899.6194 406.9923 899.6194 412.6173 C 899.6194 418.2423 891.2872 420 887.0687 420 C 882.6385 420 874.2016 418.6815 874.2016 413.3202 C 874.2016 407.8707 878.7365 407.8707 878.7365 403.125 C 878.7365 398.4666 875.1509 396.2697 872.5135 396.2697 C 869.982 396.2697 866.607 398.7303 859.9628 399.6096 C 854.4786 400.2243 846.0406 397.6755 846.0406 397.6755 C 846.0406 397.6755 846.5687 385.9863 849.732 380.7132 C 852.7906 375.4392 852.58 370.7808 848.2556 370.7808 C 843.9313 370.7808 844.5642 374.4726 839.5022 374.4726 C 834.3344 374.4726 830.4313 368.3202 830.4313 364.2774 C 830.4313 360.3219 831.3806 354.6096 835.705 354.6096 C 840.0293 354.6096 844.8806 359.0043 847.518 359.0043 C 849.3108 359.0043 851.6306 357.5976 852.1577 355.6644 C 852.6858 353.7303 849.4156 349.3356 846.1464 343.7106 C 843.4043 338.9649 846.2522 331.4058 846.2522 331.4058 C 846.2522 331.4058 854.6892 334.0428 860.1734 333.3399 C 866.8187 332.4606 870.1937 330 872.7241 330 C 875.3615 330 878.9471 332.2851 878.9471 337.0308 C 878.9471 341.6892 874.4122 341.6892 874.4122 347.0505 C 874.4122 352.5 882.8491 353.8185 887.1734 353.8185 C 891.4978 353.8185 899.83 351.9726 899.83 346.4358 C 899.83 340.7226 895.6115 341.4255 895.6115 337.3827 C 895.6115 333.1644 901.0957 330.1755 909.4279 330.1755 C 917.7601 330.1755 921.6622 331.5822 921.6622 331.5822 Z" fill="#fbb93e" fill-opacity=".30207693"/>
      </g>
      <g id="Graphic_35">
        <path d="M 997.6622 331.5822 C 997.6622 331.5822 994.8142 339.1404 997.5563 343.887 C 1000.7207 349.512 1004.0957 353.9058 1003.5687 355.8399 C 1003.0406 357.7731 1000.7207 359.1798 998.9279 359.1798 C 996.1858 359.1798 991.3344 354.7851 987.1149 354.7851 C 982.7906 354.7851 981.8423 360.4101 981.8423 364.4529 C 981.8423 368.4957 985.7444 374.6481 990.9122 374.6481 C 995.9741 374.6481 995.3423 370.9572 999.6656 370.9572 C 1003.9899 370.9572 1004.2016 375.6156 1001.143 380.8887 C 997.9786 386.1618 997.4516 397.8519 997.4516 397.8519 C 997.4516 397.8519 993.5484 396.357 985.2173 396.357 C 976.8851 396.357 971.4009 399.4332 971.4009 403.4769 C 971.4009 407.6952 975.6194 406.9923 975.6194 412.6173 C 975.6194 418.2423 967.2872 420 963.0687 420 C 958.6385 420 950.2016 418.6815 950.2016 413.3202 C 950.2016 407.8707 954.7365 407.8707 954.7365 403.125 C 954.7365 398.4666 951.1509 396.2697 948.5135 396.2697 C 945.982 396.2697 942.607 398.7303 935.9628 399.6096 C 930.4786 400.2243 922.0406 397.6755 922.0406 397.6755 C 922.0406 397.6755 922.5687 385.9863 925.732 380.7132 C 928.7906 375.4392 928.58 370.7808 924.2556 370.7808 C 919.9313 370.7808 920.5642 374.4726 915.5022 374.4726 C 910.3344 374.4726 906.4313 368.3202 906.4313 364.2774 C 906.4313 360.3219 907.3806 354.6096 911.705 354.6096 C 916.0293 354.6096 920.8806 359.0043 923.518 359.0043 C 925.3108 359.0043 927.6306 357.5976 928.1577 355.6644 C 928.6858 353.7303 925.4156 349.3356 922.1464 343.7106 C 919.4043 338.9649 922.2522 331.4058 922.2522 331.4058 C 922.2522 331.4058 930.6892 334.0428 936.1734 333.3399 C 942.8187 332.4606 946.1937 330 948.7241 330 C 951.3615 330 954.9471 332.2851 954.9471 337.0308 C 954.9471 341.6892 950.4122 341.6892 950.4122 347.0505 C 950.4122 352.5 958.8491 353.8185 963.1734 353.8185 C 967.4978 353.8185 975.83 351.9726 975.83 346.4358 C 975.83 340.7226 971.6115 341.4255 971.6115 337.3827 C 971.6115 333.1644 977.0957 330.1755 985.4279 330.1755 C 993.7601 330.1755 997.6622 331.5822 997.6622 331.5822 Z" fill="white"/>
        <path d="M 997.6622 331.5822 C 997.6622 331.5822 994.8142 339.1404 997.5563 343.887 C 1000.7207 349.512 1004.0957 353.9058 1003.5687 355.8399 C 1003.0406 357.7731 1000.7207 359.1798 998.9279 359.1798 C 996.1858 359.1798 991.3344 354.7851 987.1149 354.7851 C 982.7906 354.7851 981.8423 360.4101 981.8423 364.4529 C 981.8423 368.4957 985.7444 374.6481 990.9122 374.6481 C 995.9741 374.6481 995.3423 370.9572 999.6656 370.9572 C 1003.9899 370.9572 1004.2016 375.6156 1001.143 380.8887 C 997.9786 386.1618 997.4516 397.8519 997.4516 397.8519 C 997.4516 397.8519 993.5484 396.357 985.2173 396.357 C 976.8851 396.357 971.4009 399.4332 971.4009 403.4769 C 971.4009 407.6952 975.6194 406.9923 975.6194 412.6173 C 975.6194 418.2423 967.2872 420 963.0687 420 C 958.6385 420 950.2016 418.6815 950.2016 413.3202 C 950.2016 407.8707 954.7365 407.8707 954.7365 403.125 C 954.7365 398.4666 951.1509 396.2697 948.5135 396.2697 C 945.982 396.2697 942.607 398.7303 935.9628 399.6096 C 930.4786 400.2243 922.0406 397.6755 922.0406 397.6755 C 922.0406 397.6755 922.5687 385.9863 925.732 380.7132 C 928.7906 375.4392 928.58 370.7808 924.2556 370.7808 C 919.9313 370.7808 920.5642 374.4726 915.5022 374.4726 C 910.3344 374.4726 906.4313 368.3202 906.4313 364.2774 C 906.4313 360.3219 907.3806 354.6096 911.705 354.6096 C 916.0293 354.6096 920.8806 359.0043 923.518 359.0043 C 925.3108 359.0043 927.6306 357.5976 928.1577 355.6644 C 928.6858 353.7303 925.4156 349.3356 922.1464 343.7106 C 919.4043 338.9649 922.2522 331.4058 922.2522 331.4058 C 922.2522 331.4058 930.6892 334.0428 936.1734 333.3399 C 942.8187 332.4606 946.1937 330 948.7241 330 C 951.3615 330 954.9471 332.2851 954.9471 337.0308 C 954.9471 341.6892 950.4122 341.6892 950.4122 347.0505 C 950.4122 352.5 958.8491 353.8185 963.1734 353.8185 C 967.4978 353.8185 975.83 351.9726 975.83 346.4358 C 975.83 340.7226 971.6115 341.4255 971.6115 337.3827 C 971.6115 333.1644 977.0957 330.1755 985.4279 330.1755 C 993.7601 330.1755 997.6622 331.5822 997.6622 331.5822 Z" stroke="gray" stroke-linecap="round" stroke-linejoin="round" stroke-width="1"/>
      </g>
      <g id="Graphic_34">
        <path d="M 1072.6622 331.5822 C 1072.6622 331.5822 1069.8142 339.1404 1072.5563 343.887 C 1075.7207 349.512 1079.0957 353.9058 1078.5687 355.8399 C 1078.0406 357.7731 1075.7207 359.1798 1073.9279 359.1798 C 1071.1858 359.1798 1066.3344 354.7851 1062.1149 354.7851 C 1057.7906 354.7851 1056.8423 360.4101 1056.8423 364.4529 C 1056.8423 368.4957 1060.7444 374.6481 1065.9122 374.6481 C 1070.9741 374.6481 1070.3423 370.9572 1074.6656 370.9572 C 1078.9899 370.9572 1079.2016 375.6156 1076.143 380.8887 C 1072.9786 386.1618 1072.4516 397.8519 1072.4516 397.8519 C 1072.4516 397.8519 1068.5484 396.357 1060.2173 396.357 C 1051.8851 396.357 1046.4009 399.4332 1046.4009 403.4769 C 1046.4009 407.6952 1050.6194 406.9923 1050.6194 412.6173 C 1050.6194 418.2423 1042.2872 420 1038.0687 420 C 1033.6385 420 1025.2016 418.6815 1025.2016 413.3202 C 1025.2016 407.8707 1029.7365 407.8707 1029.7365 403.125 C 1029.7365 398.4666 1026.1509 396.2697 1023.5135 396.2697 C 1020.982 396.2697 1017.607 398.7303 1010.9628 399.6096 C 1005.4786 400.2243 997.0406 397.6755 997.0406 397.6755 C 997.0406 397.6755 997.5687 385.9863 1000.732 380.7132 C 1003.7906 375.4392 1003.58 370.7808 999.2556 370.7808 C 994.9313 370.7808 995.5642 374.4726 990.5022 374.4726 C 985.3344 374.4726 981.4313 368.3202 981.4313 364.2774 C 981.4313 360.3219 982.3806 354.6096 986.705 354.6096 C 991.0293 354.6096 995.8806 359.0043 998.518 359.0043 C 1000.3108 359.0043 1002.6306 357.5976 1003.1577 355.6644 C 1003.6858 353.7303 1000.4156 349.3356 997.1464 343.7106 C 994.4043 338.9649 997.2522 331.4058 997.2522 331.4058 C 997.2522 331.4058 1005.6892 334.0428 1011.1734 333.3399 C 1017.8187 332.4606 1021.1937 330 1023.7241 330 C 1026.3615 330 1029.9471 332.2851 1029.9471 337.0308 C 1029.9471 341.6892 1025.4122 341.6892 1025.4122 347.0505 C 1025.4122 352.5 1033.8491 353.8185 1038.1734 353.8185 C 1042.4978 353.8185 1050.83 351.9726 1050.83 346.4358 C 1050.83 340.7226 1046.6115 341.4255 1046.6115 337.3827 C 1046.6115 333.1644 1052.0957 330.1755 1060.4279 330.1755 C 1068.7601 330.1755 1072.6622 331.5822 1072.6622 331.5822 Z" fill="#333"/>
      </g>
      <g id="Graphic_37">
        <text transform="translate(647.5508 349)" fill="#003776">
          <tspan font-family="Papyrus" font-size="19" fill="#003776" x="41.956787" y="18">Founded in 2022</tspan>
          <tspan font-family="Papyrus" font-size="19" fill="#003776" x="0" y="47">Team Manu offers Experts</tspan>
          <tspan font-family="Papyrus" font-size="19" fill="#003776" x="13.967041" y="76">At the touch of a finger</tspan>
        </text>
      </g>
    </g>
  </g>
</svg>
